<svg width="100" height="72" viewBox="0 0 100 72" fill="none" xmlns="http://www.w3.org/2000/svg">
<g clip-path="url(#clip0_5_52)">
<path d="M99.5 0H0V71.15H99.5V0Z" fill="#007835"/>
<path d="M36.02 27.15L29.68 29.05L28.69 23.8L41.38 20.7V53.75H35.67C35.67 53.75 36.03 45.3 36.03 41.75V27.15H36.02Z" fill="white"/>
<path d="M57.57 54.25C50.51 54.25 46.77 49.4 46.77 37.55C46.77 26.5 50.42 20.75 57.57 20.75C64.72 20.75 68.37 26.5 68.37 37.55C68.37 49.4 64.63 54.25 57.57 54.25ZM57.57 25C54.6 25 52.62 29 52.62 37.55C52.62 46.1 54.51 50 57.57 50C60.63 50 62.52 46.15 62.52 37.55C62.52 28.95 60.54 25 57.57 25Z" fill="white"/>
</g>
<defs>
<clipPath id="clip0_5_52">
<rect width="99.5" height="71.15" fill="white"/>
</clipPath>
</defs>
</svg>
