<svg width="100" height="72" viewBox="0 0 100 72" fill="none" xmlns="http://www.w3.org/2000/svg">
<g clip-path="url(#clip0_5_47)">
<path d="M100 0H0.5V71.15H100V0Z" fill="#009767"/>
<path d="M37.44 27.15L31.09 29.05L30.1 23.8L42.79 20.7V53.75H37.08C37.08 53.75 37.44 45.3 37.44 41.75V27.15Z" fill="white"/>
<path d="M56.84 54.25C54.18 54.25 50.09 53.5 47.75 52.1L48.74 47.6C50.9 48.8 53.92 49.75 56.3 49.75C59.81 49.75 62.1 48.05 62.1 43.9C62.1 40.5 59.89 38.9 57.06 38.9H53.42L53.6 34.35H57.06C59.35 34.35 60.7 32.55 60.7 30.05C60.7 26.65 58.81 25.35 55.98 25.35C54.09 25.35 51.66 26.1 49.95 27.15L48.87 22.85C51.03 21.65 54.04 20.75 56.43 20.75C61.51 20.75 66.55 22.75 66.55 29.4C66.55 32.15 65.56 34.55 63.31 35.85C66.5 37.1 67.94 40.3 67.94 43.9C67.94 51.35 62.86 54.25 56.83 54.25H56.84Z" fill="white"/>
</g>
<defs>
<clipPath id="clip0_5_47">
<rect width="99.5" height="71.15" fill="white" transform="translate(0.5)"/>
</clipPath>
</defs>
</svg>
