<svg width="100" height="72" viewBox="0 0 100 72" fill="none" xmlns="http://www.w3.org/2000/svg">
<g clip-path="url(#clip0_5_5)">
<path d="M99.5 0H0V71.15H99.5V0Z" fill="#76B82A"/>
<path d="M36.42 27.15L30.08 29.05L29.09 23.8L41.78 20.7V53.75H36.07C36.07 53.75 36.43 45.3 36.43 41.75V27.15H36.42Z" fill="white"/>
<path d="M57.5699 54.25C53.2099 54.25 47.1799 52.35 47.1799 44.75C47.1799 38.5 51.7199 36.7 51.7199 36.7C51.7199 36.7 48.2999 35 48.2999 30.2C48.2999 23.3 52.0399 20.7 57.5699 20.7C63.0999 20.7 66.8399 23.3 66.8399 30.2C66.8399 35 63.4199 36.7 63.4199 36.7C63.4199 36.7 67.9599 38.5 67.9599 44.75C67.9599 52.35 61.9299 54.25 57.5699 54.25ZM57.5699 39C54.6499 39 52.9399 40.15 52.9399 44.6C52.9399 48.5 54.6899 50.25 57.5699 50.25C60.4499 50.25 62.1999 48.5 62.1999 44.6C62.1999 40.15 60.4899 39 57.5699 39ZM57.5699 24.75C55.4599 24.75 53.8799 26.1 53.8799 30.35C53.8799 33.9 55.4599 35.2 57.5699 35.2C59.6799 35.2 61.2599 33.9 61.2599 30.35C61.2599 26.1 59.6799 24.75 57.5699 24.75Z" fill="white"/>
</g>
<defs>
<clipPath id="clip0_5_5">
<rect width="99.5" height="71.15" fill="white"/>
</clipPath>
</defs>
</svg>
