<svg width="100" height="72" viewBox="0 0 100 72" fill="none" xmlns="http://www.w3.org/2000/svg">
<g clip-path="url(#clip0_7_617)">
<path d="M99.5 0H0V71.15H99.5V0Z" fill="#81592D"/>
<path d="M35.0698 53.75H15.2298C15.1398 53.15 15.0898 52.5 15.0898 51.9C15.0898 38.25 28.8998 38.5 28.8998 30.5C28.8998 26.95 26.9698 25.6 23.9498 25.6C21.8398 25.6 19.3198 26.95 17.6998 28.4L15.7698 24.25C17.9698 21.95 21.8398 20.75 24.7698 20.75C30.2098 20.75 34.4898 23.1 34.4898 29.8C34.4898 41.4 21.3098 43.45 20.9898 49.15L35.4298 48.85L35.0698 53.75Z" fill="white"/>
<path d="M47.2199 54.25C44.5699 54.25 40.4699 53.5 38.1299 52.1L39.1199 47.6C41.2799 48.8 44.2899 49.75 46.6799 49.75C50.1899 49.75 52.4799 48.05 52.4799 43.9C52.4799 40.5 50.2699 38.9 47.4399 38.9H43.7999L43.9799 34.35H47.4399C49.7299 34.35 51.0799 32.55 51.0799 30.05C51.0799 26.65 49.1899 25.35 46.3599 25.35C44.4699 25.35 42.0399 26.1 40.3299 27.15L39.2499 22.85C41.4099 21.65 44.4199 20.75 46.8099 20.75C51.8899 20.75 56.9299 22.75 56.9299 29.4C56.9299 32.15 55.9399 34.55 53.6899 35.85C56.8799 37.1 58.3199 40.3 58.3199 43.9C58.3199 51.35 53.2399 54.25 47.2099 54.25H47.2199Z" fill="white"/>
<path d="M72.8697 54.25C67.8297 54.25 62.3896 52.65 62.3896 38.7C62.3896 29.55 66.2096 20.75 75.3896 20.75C78.4496 20.75 80.3896 21.4 80.9296 21.55L80.2997 25.95C80.2997 25.95 78.4596 25.2 75.9296 25.2C70.4396 25.2 68.9996 30.6 68.8196 36.3C70.2596 35.2 71.1596 33.85 74.1296 33.85C78.4996 33.85 82.6296 36.3 82.6296 43.8C82.6296 52.65 76.0597 54.25 72.8697 54.25ZM73.0896 37.7C70.6196 37.7 68.8196 39.9 68.8196 39.9C68.8196 46.1 70.0297 50.35 73.0497 50.35C75.0797 50.35 76.7896 48.9 76.7896 43.85C76.7896 39.45 75.6696 37.7 73.0996 37.7H73.0896Z" fill="white"/>
</g>
<defs>
<clipPath id="clip0_7_617">
<rect width="99.5" height="71.15" fill="white"/>
</clipPath>
</defs>
</svg>
