<svg width="100" height="72" viewBox="0 0 100 72" fill="none" xmlns="http://www.w3.org/2000/svg">
<g clip-path="url(#clip0_7_258)">
<path d="M100 0H0.5V71.15H100V0Z" fill="#EF7D00"/>
<path d="M35.3 54.25C32.65 54.25 28.55 53.5 26.21 52.1L27.2 47.6C29.36 48.8 32.37 49.75 34.76 49.75C38.27 49.75 40.57 48.05 40.57 43.9C40.57 40.5 38.36 38.9 35.53 38.9H31.88L32.06 34.35H35.52C37.81 34.35 39.17 32.55 39.17 30.05C39.17 26.65 37.28 25.35 34.44 25.35C32.55 25.35 30.12 26.1 28.41 27.15L27.33 22.85C29.49 21.65 32.5 20.75 34.89 20.75C39.97 20.75 45.01 22.75 45.01 29.4C45.01 32.15 44.02 34.55 41.77 35.85C44.96 37.1 46.4 40.3 46.4 43.9C46.4 51.35 41.32 54.25 35.29 54.25H35.3Z" fill="white"/>
<path d="M61.27 54.25C54.21 54.25 50.47 49.4 50.47 37.55C50.47 26.5 54.12 20.75 61.27 20.75C68.42 20.75 72.07 26.5 72.07 37.55C72.07 49.4 68.33 54.25 61.27 54.25ZM61.27 25C58.3 25 56.32 29 56.32 37.55C56.32 46.1 58.21 50 61.27 50C64.33 50 66.22 46.15 66.22 37.55C66.22 28.95 64.24 25 61.27 25Z" fill="white"/>
</g>
<defs>
<clipPath id="clip0_7_258">
<rect width="99.5" height="71.15" fill="white" transform="translate(0.5)"/>
</clipPath>
</defs>
</svg>
