<svg width="100" height="72" viewBox="0 0 100 72" fill="none" xmlns="http://www.w3.org/2000/svg">
<g clip-path="url(#clip0_7_238)">
<path d="M100 0H0.5V71.15H100V0Z" fill="#E84E0F"/>
<path d="M35.9799 54.25C33.3299 54.25 29.2299 53.5 26.8899 52.1L27.8799 47.6C30.0399 48.8 33.0499 49.75 35.4399 49.75C38.9499 49.75 41.2499 48.05 41.2499 43.9C41.2499 40.5 39.0399 38.9 36.2099 38.9H32.5599L32.7399 34.35H36.1999C38.4899 34.35 39.8499 32.55 39.8499 30.05C39.8499 26.65 37.9599 25.35 35.1199 25.35C33.2299 25.35 30.7999 26.1 29.0899 27.15L28.0099 22.85C30.1699 21.65 33.1799 20.75 35.5699 20.75C40.6499 20.75 45.6899 22.75 45.6899 29.4C45.6899 32.15 44.6999 34.55 42.4499 35.85C45.6399 37.1 47.0799 40.3 47.0799 43.9C47.0799 51.35 41.9999 54.25 35.9699 54.25H35.9799Z" fill="white"/>
<path d="M60.5499 54.25C57.4399 54.25 54.1099 53.75 51.1399 52.75L52.2199 48.05C54.4699 49 57.5699 49.85 59.9599 49.85C63.0599 49.85 65.5399 47.65 65.5399 44.05C65.5399 39.75 63.1599 37.85 59.4699 37.85C57.4399 37.85 55.3799 38.05 53.3499 38.4L54.5199 21.3H70.4899L70.1299 25.95L59.3299 25.75L58.6999 34.2C59.9099 34 61.1299 33.85 62.3499 33.85C68.3299 33.85 71.3899 37.6 71.3899 44.15C71.3899 51.4 66.3999 54.25 60.5499 54.25Z" fill="white"/>
</g>
<defs>
<clipPath id="clip0_7_238">
<rect width="99.5" height="71.15" fill="white" transform="translate(0.5)"/>
</clipPath>
</defs>
</svg>
