<svg width="100" height="72" viewBox="0 0 100 72" fill="none" xmlns="http://www.w3.org/2000/svg">
<g clip-path="url(#clip0_7_233)">
<path d="M99.5 0H0V71.15H99.5V0Z" fill="#A877B2"/>
<path d="M35.4799 54.25C32.8299 54.25 28.7299 53.5 26.3899 52.1L27.3799 47.6C29.5399 48.8 32.5499 49.75 34.9399 49.75C38.4499 49.75 40.7499 48.05 40.7499 43.9C40.7499 40.5 38.5399 38.9 35.7099 38.9H32.0599L32.2399 34.35H35.6999C37.9899 34.35 39.3499 32.55 39.3499 30.05C39.3499 26.65 37.4599 25.35 34.6199 25.35C32.7299 25.35 30.2999 26.1 28.5899 27.15L27.5099 22.85C29.6699 21.65 32.6799 20.75 35.0699 20.75C40.1499 20.75 45.1899 22.75 45.1899 29.4C45.1899 32.15 44.1999 34.55 41.9499 35.85C45.1399 37.1 46.5799 40.3 46.5799 43.9C46.5799 51.35 41.4999 54.25 35.4699 54.25H35.4799Z" fill="white"/>
<path d="M61.1299 54.25C56.0899 54.25 50.6499 52.65 50.6499 38.7C50.6499 29.55 54.4799 20.75 63.6499 20.75C66.7099 20.75 68.6399 21.4 69.1799 21.55L68.5499 25.95C68.5499 25.95 66.7099 25.2 64.1899 25.2C58.6999 25.2 57.2599 30.6 57.0799 36.3C58.5199 35.2 59.4199 33.85 62.3899 33.85C66.7499 33.85 70.8899 36.3 70.8899 43.8C70.8899 52.65 64.3199 54.25 61.1299 54.25ZM61.3599 37.7C58.8799 37.7 57.0799 39.9 57.0799 39.9C57.0799 46.1 58.2899 50.35 61.3099 50.35C63.3299 50.35 65.0399 48.9 65.0399 43.85C65.0399 39.45 63.9199 37.7 61.3499 37.7H61.3599Z" fill="white"/>
</g>
<defs>
<clipPath id="clip0_7_233">
<rect width="99.5" height="71.15" fill="white"/>
</clipPath>
</defs>
</svg>
