<svg width="100" height="72" viewBox="0 0 100 72" fill="none" xmlns="http://www.w3.org/2000/svg">
<g clip-path="url(#clip0_7_192)">
<path d="M100 0H0.5V71.15H100V0Z" fill="#F9B000"/>
<path d="M35.8199 54.25C32.7199 54.25 29.3899 53.75 26.4199 52.75L27.4999 48.05C29.7499 49 32.8499 49.85 35.2399 49.85C38.3399 49.85 40.8199 47.65 40.8199 44.05C40.8199 39.75 38.4399 37.85 34.7499 37.85C32.7299 37.85 30.6599 38.05 28.6299 38.4L29.7999 21.3H45.7699L45.4099 25.95L34.6099 25.75L33.9799 34.2C35.1899 34 36.4099 33.85 37.6199 33.85C43.5999 33.85 46.6599 37.6 46.6599 44.15C46.6599 51.4 41.6599 54.25 35.8199 54.25Z" fill="#1D1D1B"/>
<path d="M61.51 54.25C54.45 54.25 50.71 49.4 50.71 37.55C50.71 26.5 54.36 20.75 61.51 20.75C68.66 20.75 72.31 26.5 72.31 37.55C72.31 49.4 68.57 54.25 61.51 54.25ZM61.51 25C58.54 25 56.56 29 56.56 37.55C56.56 46.1 58.45 50 61.51 50C64.57 50 66.46 46.15 66.46 37.55C66.46 28.95 64.48 25 61.51 25Z" fill="#1D1D1B"/>
</g>
<defs>
<clipPath id="clip0_7_192">
<rect width="99.5" height="71.15" fill="white" transform="translate(0.5)"/>
</clipPath>
</defs>
</svg>
