<svg width="100" height="72" viewBox="0 0 100 72" fill="none" xmlns="http://www.w3.org/2000/svg">
<g clip-path="url(#clip0_7_187)">
<path d="M99.5 0H0V71.15H99.5V0Z" fill="#E84E0F"/>
<path d="M39.44 54.25C36.34 54.25 33.01 53.75 30.04 52.75L31.12 48.05C33.37 49 36.47 49.85 38.86 49.85C41.96 49.85 44.44 47.65 44.44 44.05C44.44 39.75 42.06 37.85 38.37 37.85C36.35 37.85 34.28 38.05 32.25 38.4L33.42 21.3H49.39L49.03 25.95L38.23 25.75L37.6 34.2C38.81 34 40.03 33.85 41.24 33.85C47.22 33.85 50.28 37.6 50.28 44.15C50.28 51.4 45.28 54.25 39.44 54.25Z" fill="white"/>
<path d="M60.9902 27.15L54.6502 29.05L53.6602 23.8L66.3502 20.7V53.75H60.6402C60.6402 53.75 61.0002 45.3 61.0002 41.75V27.15H60.9902Z" fill="white"/>
</g>
<defs>
<clipPath id="clip0_7_187">
<rect width="99.5" height="71.15" fill="white"/>
</clipPath>
</defs>
</svg>
