<svg width="100" height="72" viewBox="0 0 100 72" fill="none" xmlns="http://www.w3.org/2000/svg">
<g clip-path="url(#clip0_7_1271)">
<path d="M99.5 0H0V71.15H99.5V0Z" fill="#99287B"/>
<path d="M36.4 54.25C33.3 54.25 29.97 53.75 27 52.75L28.08 48.05C30.33 49 33.43 49.85 35.82 49.85C38.92 49.85 41.4 47.65 41.4 44.05C41.4 39.75 39.02 37.85 35.33 37.85C33.31 37.85 31.24 38.0501 29.21 38.4001L30.38 21.3H46.35L45.99 25.9501L35.19 25.75L34.56 34.2001C35.77 34.0001 36.99 33.85 38.2 33.85C44.18 33.85 47.24 37.6001 47.24 44.1501C47.24 51.4001 42.24 54.25 36.4 54.25Z" fill="white"/>
<path d="M71.27 53.75H51.43C51.34 53.15 51.3 52.5 51.3 51.9C51.3 38.25 65.1101 38.5 65.1101 30.5C65.1101 26.95 63.18 25.6 60.16 25.6C58.04 25.6 55.53 26.95 53.91 28.4L51.9701 24.25C54.1801 21.95 58.0501 20.75 60.9701 20.75C66.4101 20.75 70.6901 23.1 70.6901 29.8C70.6901 41.4 57.51 43.45 57.19 49.15L71.64 48.85L71.28 53.75H71.27Z" fill="white"/>
</g>
<defs>
<clipPath id="clip0_7_1271">
<rect width="99.5" height="71.15" fill="white"/>
</clipPath>
</defs>
</svg>
