<svg width="100" height="72" viewBox="0 0 100 72" fill="none" xmlns="http://www.w3.org/2000/svg">
<g clip-path="url(#clip0_7_182)">
<path d="M100 0H0.5V71.15H100V0Z" fill="#A877B2"/>
<path d="M36.5001 54.25C33.4001 54.25 30.0701 53.75 27.1001 52.75L28.1801 48.05C30.4301 49 33.5301 49.85 35.9201 49.85C39.0201 49.85 41.5001 47.65 41.5001 44.05C41.5001 39.75 39.1201 37.85 35.4301 37.85C33.4101 37.85 31.3401 38.05 29.3101 38.4L30.4801 21.3H46.4501L46.0901 25.95L35.2901 25.75L34.6601 34.2C35.8701 34 37.0901 33.85 38.3001 33.85C44.2801 33.85 47.3401 37.6 47.3401 44.15C47.3401 51.4 42.3401 54.25 36.5001 54.25Z" fill="white"/>
<path d="M60.8001 54.25C57.6901 54.25 54.3601 53.75 51.3901 52.75L52.4701 48.05C54.7201 49 57.8201 49.85 60.2101 49.85C63.3201 49.85 65.7901 47.65 65.7901 44.05C65.7901 39.75 63.4101 37.85 59.7201 37.85C57.6901 37.85 55.6301 38.05 53.6001 38.4L54.7701 21.3H70.7401L70.3801 25.95L59.5801 25.75L58.9501 34.2C60.1601 34 61.3801 33.85 62.6001 33.85C68.5801 33.85 71.6401 37.6 71.6401 44.15C71.6401 51.4 66.6501 54.25 60.8001 54.25Z" fill="white"/>
</g>
<defs>
<clipPath id="clip0_7_182">
<rect width="99.5" height="71.15" fill="white" transform="translate(0.5)"/>
</clipPath>
</defs>
</svg>
