<svg width="100" height="72" viewBox="0 0 100 72" fill="none" xmlns="http://www.w3.org/2000/svg">
<g clip-path="url(#clip0_7_298)">
<path d="M100 0H0.5V71.15H100V0Z" fill="#95C11F"/>
<path d="M37.98 54.25C32.94 54.25 27.5 52.65 27.5 38.7C27.5 29.55 31.33 20.75 40.5 20.75C43.56 20.75 45.49 21.4 46.03 21.55L45.4 25.95C45.4 25.95 43.55 25.2 41.03 25.2C35.54 25.2 34.1 30.6 33.92 36.3C35.36 35.2 36.26 33.85 39.23 33.85C43.59 33.85 47.73 36.3 47.73 43.8C47.73 52.65 41.16 54.25 37.97 54.25H37.98ZM38.21 37.7C35.73 37.7 33.94 39.9 33.94 39.9C33.94 46.1 35.15 50.35 38.17 50.35C40.19 50.35 41.9 48.9 41.9 43.85C41.9 39.45 40.78 37.7 38.21 37.7Z" fill="white"/>
<path d="M71.77 53.75H51.93C51.84 53.15 51.8 52.5 51.8 51.9C51.8 38.25 65.6101 38.5 65.6101 30.5C65.6101 26.95 63.68 25.6 60.66 25.6C58.54 25.6 56.03 26.95 54.41 28.4L52.4701 24.25C54.6801 21.95 58.5501 20.75 61.4701 20.75C66.9101 20.75 71.1901 23.1 71.1901 29.8C71.1901 41.4 58.01 43.45 57.69 49.15L72.14 48.85L71.78 53.75H71.77Z" fill="white"/>
</g>
<defs>
<clipPath id="clip0_7_298">
<rect width="99.5" height="71.15" fill="white" transform="translate(0.5)"/>
</clipPath>
</defs>
</svg>
