<svg width="100" height="72" viewBox="0 0 100 72" fill="none" xmlns="http://www.w3.org/2000/svg">
<g clip-path="url(#clip0_7_308)">
<path d="M100 0H0.5V71.15H100V0Z" fill="#802E77"/>
<path d="M37.5801 54.25C32.5401 54.25 27.1001 52.65 27.1001 38.7C27.1001 29.55 30.9301 20.75 40.1001 20.75C43.1601 20.75 45.0901 21.4 45.6301 21.55L45.0001 25.95C45.0001 25.95 43.1501 25.2 40.6301 25.2C35.1401 25.2 33.7001 30.6 33.5201 36.3C34.9601 35.2 35.8601 33.85 38.8301 33.85C43.1901 33.85 47.3301 36.3 47.3301 43.8C47.3301 52.65 40.7601 54.25 37.5701 54.25H37.5801ZM37.8101 37.7C35.3301 37.7 33.5401 39.9 33.5401 39.9C33.5401 46.1 34.7501 50.35 37.7701 50.35C39.7901 50.35 41.5001 48.9 41.5001 43.85C41.5001 39.45 40.3801 37.7 37.8101 37.7Z" fill="white"/>
<path d="M60.8001 54.25C57.6901 54.25 54.3601 53.75 51.3901 52.75L52.4701 48.05C54.7201 49 57.8201 49.85 60.2101 49.85C63.3201 49.85 65.7901 47.65 65.7901 44.05C65.7901 39.75 63.4101 37.85 59.7201 37.85C57.6901 37.85 55.6301 38.05 53.6001 38.4L54.7701 21.3H70.7401L70.3801 25.95L59.5801 25.75L58.9501 34.2C60.1601 34 61.3801 33.85 62.6001 33.85C68.5801 33.85 71.6401 37.6 71.6401 44.15C71.6401 51.4 66.6501 54.25 60.8001 54.25Z" fill="white"/>
</g>
<defs>
<clipPath id="clip0_7_308">
<rect width="99.5" height="71.15" fill="white" transform="translate(0.5)"/>
</clipPath>
</defs>
</svg>
