<svg width="100" height="72" viewBox="0 0 100 72" fill="none" xmlns="http://www.w3.org/2000/svg">
<g clip-path="url(#clip0_7_313)">
<path d="M99.5 0H0V71.15H99.5V0Z" fill="#F39200"/>
<path d="M37.0801 54.25C32.0401 54.25 26.6001 52.65 26.6001 38.7C26.6001 29.55 30.4301 20.75 39.6001 20.75C42.6601 20.75 44.5901 21.4 45.1301 21.55L44.5001 25.95C44.5001 25.95 42.6501 25.2 40.1301 25.2C34.6401 25.2 33.2001 30.6 33.0201 36.3C34.4601 35.2 35.3601 33.85 38.3301 33.85C42.6901 33.85 46.8301 36.3 46.8301 43.8C46.8301 52.65 40.2601 54.25 37.0701 54.25H37.0801ZM37.3101 37.7C34.8301 37.7 33.0401 39.9 33.0401 39.9C33.0401 46.1 34.2501 50.35 37.2701 50.35C39.2901 50.35 41.0001 48.9 41.0001 43.85C41.0001 39.45 39.8801 37.7 37.3101 37.7Z" fill="white"/>
<path d="M61.3701 54.25C56.3301 54.25 50.8901 52.65 50.8901 38.7C50.8901 29.55 54.7201 20.75 63.8901 20.75C66.9501 20.75 68.8801 21.4 69.4201 21.55L68.7901 25.95C68.7901 25.95 66.9501 25.2 64.4301 25.2C58.9401 25.2 57.5001 30.6 57.3201 36.3C58.7601 35.2 59.6601 33.85 62.6301 33.85C66.9901 33.85 71.1301 36.3 71.1301 43.8C71.1301 52.65 64.5601 54.25 61.3701 54.25ZM61.6001 37.7C59.1201 37.7 57.3201 39.9 57.3201 39.9C57.3201 46.1 58.5301 50.35 61.5501 50.35C63.5701 50.35 65.2801 48.9 65.2801 43.85C65.2801 39.45 64.1601 37.7 61.5901 37.7H61.6001Z" fill="white"/>
</g>
<defs>
<clipPath id="clip0_7_313">
<rect width="99.5" height="71.15" fill="white"/>
</clipPath>
</defs>
</svg>
