<svg width="100" height="72" viewBox="0 0 100 72" fill="none" xmlns="http://www.w3.org/2000/svg">
<g clip-path="url(#clip0_7_678)">
<path d="M100 0H0.5V71.15H100V0Z" fill="#95C11F"/>
<path d="M36.3599 53.75H30.2399C31.9099 45.55 36.4899 32.35 41.2199 25.8L28.5299 26L28.1699 21.25H47.1599V24.75C42.7499 31.5 37.6199 45.55 36.3599 53.75Z" fill="white"/>
<path d="M59.2599 54.25C56.1599 54.25 52.8299 53.75 49.8599 52.75L50.9399 48.05C53.1899 49 56.2899 49.85 58.6799 49.85C61.7799 49.85 64.2599 47.65 64.2599 44.05C64.2599 39.75 61.8799 37.85 58.1799 37.85C56.1599 37.85 54.0899 38.05 52.0599 38.4L53.2299 21.3H69.1999L68.8399 25.95L58.0399 25.75L57.4099 34.2C58.6199 34 59.8399 33.85 61.0499 33.85C67.0399 33.85 70.0899 37.6 70.0899 44.15C70.0899 51.4 65.0899 54.25 59.2499 54.25H59.2599Z" fill="white"/>
</g>
<defs>
<clipPath id="clip0_7_678">
<rect width="99.5" height="71.15" fill="white" transform="translate(0.5)"/>
</clipPath>
</defs>
</svg>
