<svg width="100" height="72" viewBox="0 0 100 72" fill="none" xmlns="http://www.w3.org/2000/svg">
<g clip-path="url(#clip0_7_683)">
<path d="M99.5 0H0V71.15H99.5V0Z" fill="#8A1002"/>
<path d="M35.8599 53.75H29.7399C31.4099 45.55 35.9899 32.35 40.7199 25.8L28.0299 26L27.6699 21.25H46.6599V24.75C42.2499 31.5 37.1199 45.55 35.8599 53.75Z" fill="white"/>
<path d="M59.8399 54.25C54.7999 54.25 49.3599 52.65 49.3599 38.7C49.3599 29.55 53.1799 20.75 62.3599 20.75C65.4199 20.75 67.3599 21.4 67.8999 21.55L67.2699 25.95C67.2699 25.95 65.4299 25.2 62.8999 25.2C57.4099 25.2 55.9699 30.6 55.7899 36.3C57.2299 35.2 58.1299 33.85 61.0999 33.85C65.4699 33.85 69.5999 36.3 69.5999 43.8C69.5999 52.65 63.0299 54.25 59.8399 54.25ZM60.0599 37.7C57.5899 37.7 55.7899 39.9 55.7899 39.9C55.7899 46.1 56.9999 50.35 60.0199 50.35C62.0499 50.35 63.7599 48.9 63.7599 43.85C63.7599 39.45 62.6399 37.7 60.0699 37.7H60.0599Z" fill="white"/>
</g>
<defs>
<clipPath id="clip0_7_683">
<rect width="99.5" height="71.15" fill="white"/>
</clipPath>
</defs>
</svg>
