<svg width="100" height="72" viewBox="0 0 100 72" fill="none" xmlns="http://www.w3.org/2000/svg">
<g clip-path="url(#clip0_7_663)">
<path d="M100 0H0.5V71.15H100V0Z" fill="#A84D97"/>
<path d="M36.0899 53.75H29.9699C31.6399 45.55 36.2199 32.35 40.9499 25.8L28.2599 26L27.8999 21.25H46.8899V24.75C42.4799 31.5 37.3499 45.55 36.0899 53.75Z" fill="white"/>
<path d="M59.9798 54.25C55.6198 54.25 49.5898 52.35 49.5898 44.75C49.5898 38.5 54.1298 36.7 54.1298 36.7C54.1298 36.7 50.7098 35 50.7098 30.2C50.7098 23.3 54.4498 20.7 59.9798 20.7C65.5098 20.7 69.2498 23.3 69.2498 30.2C69.2498 35 65.8298 36.7 65.8298 36.7C65.8298 36.7 70.3698 38.5 70.3698 44.75C70.3698 52.35 64.3398 54.25 59.9798 54.25ZM59.9798 39C57.0598 39 55.3498 40.15 55.3498 44.6C55.3498 48.5 57.0998 50.25 59.9798 50.25C62.8598 50.25 64.6098 48.5 64.6098 44.6C64.6098 40.15 62.8998 39 59.9798 39ZM59.9798 24.75C57.8698 24.75 56.2898 26.1 56.2898 30.35C56.2898 33.9 57.8698 35.2 59.9798 35.2C62.0898 35.2 63.6698 33.9 63.6698 30.35C63.6698 26.1 62.0898 24.75 59.9798 24.75Z" fill="white"/>
</g>
<defs>
<clipPath id="clip0_7_663">
<rect width="99.5" height="71.15" fill="white" transform="translate(0.5)"/>
</clipPath>
</defs>
</svg>
