<svg width="100" height="72" viewBox="0 0 100 72" fill="none" xmlns="http://www.w3.org/2000/svg">
<g clip-path="url(#clip0_7_658)">
<path d="M99.5 0H0V71.15H99.5V0Z" fill="#FFCC00"/>
<path d="M36.0399 54.25C31.6799 54.25 25.6499 52.35 25.6499 44.75C25.6499 38.5 30.1899 36.7 30.1899 36.7C30.1899 36.7 26.7699 35 26.7699 30.2C26.7699 23.3 30.4999 20.7 36.0399 20.7C41.5799 20.7 45.3099 23.3 45.3099 30.2C45.3099 35 41.8899 36.7 41.8899 36.7C41.8899 36.7 46.4299 38.5 46.4299 44.75C46.4299 52.35 40.3999 54.25 36.0299 54.25H36.0399ZM36.0399 39C33.1199 39 31.4099 40.15 31.4099 44.6C31.4099 48.5 33.1599 50.25 36.0399 50.25C38.9199 50.25 40.6799 48.5 40.6799 44.6C40.6799 40.15 38.9699 39 36.0399 39ZM36.0399 24.75C33.9299 24.75 32.3499 26.1 32.3499 30.35C32.3499 33.9 33.9199 35.2 36.0399 35.2C38.1599 35.2 39.7299 33.9 39.7299 30.35C39.7299 26.1 38.1599 24.75 36.0399 24.75Z" fill="#1D1D1B"/>
<path d="M61.28 54.25C54.22 54.25 50.48 49.4 50.48 37.55C50.48 26.5 54.12 20.75 61.28 20.75C68.44 20.75 72.08 26.5 72.08 37.55C72.08 49.4 68.35 54.25 61.28 54.25ZM61.28 25C58.31 25 56.33 29 56.33 37.55C56.33 46.1 58.22 50 61.28 50C64.34 50 66.23 46.15 66.23 37.55C66.23 28.95 64.25 25 61.28 25Z" fill="#1D1D1B"/>
</g>
<defs>
<clipPath id="clip0_7_658">
<rect width="99.5" height="71.15" fill="white"/>
</clipPath>
</defs>
</svg>
