<svg width="100" height="72" viewBox="0 0 100 72" fill="none" xmlns="http://www.w3.org/2000/svg">
<g clip-path="url(#clip0_7_653)">
<path d="M100 0H0.5V71.15H100V0Z" fill="#A877B2"/>
<path d="M40.66 54.25C36.3 54.25 30.27 52.35 30.27 44.75C30.27 38.5 34.81 36.7 34.81 36.7C34.81 36.7 31.39 35 31.39 30.2C31.39 23.3 35.12 20.7 40.66 20.7C46.2 20.7 49.93 23.3 49.93 30.2C49.93 35 46.51 36.7 46.51 36.7C46.51 36.7 51.05 38.5 51.05 44.75C51.05 52.35 45.02 54.25 40.65 54.25H40.66ZM40.66 39C37.74 39 36.03 40.15 36.03 44.6C36.03 48.5 37.78 50.25 40.66 50.25C43.54 50.25 45.3 48.5 45.3 44.6C45.3 40.15 43.59 39 40.66 39ZM40.66 24.75C38.55 24.75 36.97 26.1 36.97 30.35C36.97 33.9 38.54 35.2 40.66 35.2C42.78 35.2 44.35 33.9 44.35 30.35C44.35 26.1 42.78 24.75 40.66 24.75Z" fill="white"/>
<path d="M61.7602 27.15L55.4202 29.05L54.4302 23.8L67.1202 20.7V53.75H61.4102C61.4102 53.75 61.7702 45.3 61.7702 41.75V27.15H61.7602Z" fill="white"/>
</g>
<defs>
<clipPath id="clip0_7_653">
<rect width="99.5" height="71.15" fill="white" transform="translate(0.5)"/>
</clipPath>
</defs>
</svg>
