<svg width="100" height="72" viewBox="0 0 100 72" fill="none" xmlns="http://www.w3.org/2000/svg">
<g clip-path="url(#clip0_7_648)">
<path d="M99.5 0H0V71.15H99.5V0Z" fill="#F39200"/>
<path d="M37.12 54.25C32.76 54.25 26.73 52.35 26.73 44.75C26.73 38.5 31.27 36.7 31.27 36.7C31.27 36.7 27.85 35 27.85 30.2C27.85 23.3 31.58 20.7 37.12 20.7C42.66 20.7 46.39 23.3 46.39 30.2C46.39 35 42.97 36.7 42.97 36.7C42.97 36.7 47.51 38.5 47.51 44.75C47.51 52.35 41.48 54.25 37.11 54.25H37.12ZM37.12 39C34.2 39 32.49 40.15 32.49 44.6C32.49 48.5 34.24 50.25 37.12 50.25C40 50.25 41.76 48.5 41.76 44.6C41.76 40.15 40.05 39 37.12 39ZM37.12 24.75C35.01 24.75 33.43 26.1 33.43 30.35C33.43 33.9 35 35.2 37.12 35.2C39.24 35.2 40.81 33.9 40.81 30.35C40.81 26.1 39.24 24.75 37.12 24.75Z" fill="white"/>
<path d="M71.5398 53.75H51.6998C51.6098 53.15 51.5698 52.5 51.5698 51.9C51.5698 38.25 65.3798 38.5 65.3798 30.5C65.3798 26.95 63.4498 25.6 60.4298 25.6C58.3098 25.6 55.7998 26.95 54.1798 28.4L52.2398 24.25C54.4498 21.95 58.3198 20.75 61.2398 20.75C66.6798 20.75 70.9598 23.1 70.9598 29.8C70.9598 41.4 57.7798 43.45 57.4598 49.15L71.9098 48.85L71.5498 53.75H71.5398Z" fill="white"/>
</g>
<defs>
<clipPath id="clip0_7_648">
<rect width="99.5" height="71.15" fill="white"/>
</clipPath>
</defs>
</svg>
