<svg width="100" height="72" viewBox="0 0 100 72" fill="none" xmlns="http://www.w3.org/2000/svg">
<g clip-path="url(#clip0_7_643)">
<path d="M100 0H0.5V71.15H100V0Z" fill="#C69DC9"/>
<path d="M34.7601 54.25C30.4001 54.25 24.3701 52.35 24.3701 44.75C24.3701 38.5 28.9101 36.7 28.9101 36.7C28.9101 36.7 25.4901 35 25.4901 30.2C25.4901 23.3 29.2201 20.7 34.7601 20.7C40.3001 20.7 44.0301 23.3 44.0301 30.2C44.0301 35 40.6101 36.7 40.6101 36.7C40.6101 36.7 45.1501 38.5 45.1501 44.75C45.1501 52.35 39.1201 54.25 34.7501 54.25H34.7601ZM34.7601 39C31.8401 39 30.1301 40.15 30.1301 44.6C30.1301 48.5 31.8801 50.25 34.7601 50.25C37.6401 50.25 39.4001 48.5 39.4001 44.6C39.4001 40.15 37.6901 39 34.7601 39ZM34.7601 24.75C32.6501 24.75 31.0701 26.1 31.0701 30.35C31.0701 33.9 32.6401 35.2 34.7601 35.2C36.8801 35.2 38.4501 33.9 38.4501 30.35C38.4501 26.1 36.8801 24.75 34.7601 24.75Z" fill="white"/>
<path d="M70.1803 46.5H66.8903L66.9803 53.75H61.4003L61.4903 46.5H48.9403L48.7603 42.15L60.8603 21.25H66.8903V42.1H70.3503L70.1703 46.5H70.1803ZM61.5003 28.05L53.1803 42.1H61.5003V28.05Z" fill="white"/>
</g>
<defs>
<clipPath id="clip0_7_643">
<rect width="99.5" height="71.15" fill="white" transform="translate(0.5)"/>
</clipPath>
</defs>
</svg>
