<svg width="100" height="72" viewBox="0 0 100 72" fill="none" xmlns="http://www.w3.org/2000/svg">
<g clip-path="url(#clip0_7_638)">
<path d="M100 0H0.5V71.15H100V0Z" fill="#E30613"/>
<path d="M37.2098 54.25C32.8498 54.25 26.8198 52.35 26.8198 44.75C26.8198 38.5 31.3598 36.7 31.3598 36.7C31.3598 36.7 27.9398 35 27.9398 30.2C27.9398 23.3 31.6698 20.7 37.2098 20.7C42.7498 20.7 46.4798 23.3 46.4798 30.2C46.4798 35 43.0598 36.7 43.0598 36.7C43.0598 36.7 47.5998 38.5 47.5998 44.75C47.5998 52.35 41.5698 54.25 37.1998 54.25H37.2098ZM37.2098 39C34.2898 39 32.5798 40.15 32.5798 44.6C32.5798 48.5 34.3298 50.25 37.2098 50.25C40.0898 50.25 41.8498 48.5 41.8498 44.6C41.8498 40.15 40.1398 39 37.2098 39ZM37.2098 24.75C35.0998 24.75 33.5198 26.1 33.5198 30.35C33.5198 33.9 35.0898 35.2 37.2098 35.2C39.3298 35.2 40.8998 33.9 40.8998 30.35C40.8998 26.1 39.3298 24.75 37.2098 24.75Z" fill="white"/>
<path d="M62.1397 54.25C57.0997 54.25 51.6597 52.65 51.6597 38.7C51.6597 29.55 55.4797 20.75 64.6597 20.75C67.7197 20.75 69.6597 21.4 70.1997 21.55L69.5697 25.95C69.5697 25.95 67.7297 25.2 65.1997 25.2C59.7097 25.2 58.2697 30.6 58.0897 36.3C59.5297 35.2 60.4297 33.85 63.3997 33.85C67.7697 33.85 71.8997 36.3 71.8997 43.8C71.8997 52.65 65.3297 54.25 62.1397 54.25ZM62.3597 37.7C59.8897 37.7 58.0897 39.9 58.0897 39.9C58.0897 46.1 59.2997 50.35 62.3197 50.35C64.3497 50.35 66.0597 48.9 66.0597 43.85C66.0597 39.45 64.9397 37.7 62.3697 37.7H62.3597Z" fill="white"/>
</g>
<defs>
<clipPath id="clip0_7_638">
<rect width="99.5" height="71.15" fill="white" transform="translate(0.5)"/>
</clipPath>
</defs>
</svg>
