<svg width="100" height="72" viewBox="0 0 100 72" fill="none" xmlns="http://www.w3.org/2000/svg">
<g clip-path="url(#clip0_7_633)">
<path d="M99.5 0H0V71.15H99.5V0Z" fill="#FFD500"/>
<path d="M38.2401 54.25C33.8801 54.25 27.8501 52.35 27.8501 44.75C27.8501 38.5 32.3901 36.7 32.3901 36.7C32.3901 36.7 28.9701 35 28.9701 30.2C28.9701 23.3 32.7001 20.7 38.2401 20.7C43.7801 20.7 47.5101 23.3 47.5101 30.2C47.5101 35 44.0901 36.7 44.0901 36.7C44.0901 36.7 48.6301 38.5 48.6301 44.75C48.6301 52.35 42.6001 54.25 38.2301 54.25H38.2401ZM38.2401 39C35.3201 39 33.6101 40.15 33.6101 44.6C33.6101 48.5 35.3601 50.25 38.2401 50.25C41.1201 50.25 42.8801 48.5 42.8801 44.6C42.8801 40.15 41.1701 39 38.2401 39ZM38.2401 24.75C36.1301 24.75 34.5501 26.1 34.5501 30.35C34.5501 33.9 36.1201 35.2 38.2401 35.2C40.3601 35.2 41.9301 33.9 41.9301 30.35C41.9301 26.1 40.3601 24.75 38.2401 24.75Z" fill="#1D1D1B"/>
<path d="M60.4302 53.75H54.3102C55.9802 45.55 60.5602 32.35 65.2902 25.8L52.6002 26L52.2402 21.25H71.2302V24.75C66.8202 31.5 61.6902 45.55 60.4302 53.75Z" fill="#1D1D1B"/>
</g>
<defs>
<clipPath id="clip0_7_633">
<rect width="99.5" height="71.15" fill="white"/>
</clipPath>
</defs>
</svg>
