<svg width="100" height="72" viewBox="0 0 100 72" fill="none" xmlns="http://www.w3.org/2000/svg">
<g clip-path="url(#clip0_7_628)">
<path d="M99.5 0H0V71.15H99.5V0Z" fill="#802E77"/>
<path d="M36.4501 54.25C32.0901 54.25 26.0601 52.35 26.0601 44.75C26.0601 38.5 30.6001 36.7 30.6001 36.7C30.6001 36.7 27.1801 35 27.1801 30.2C27.1801 23.3 30.9101 20.7 36.4501 20.7C41.9901 20.7 45.7201 23.3 45.7201 30.2C45.7201 35 42.3001 36.7 42.3001 36.7C42.3001 36.7 46.8401 38.5 46.8401 44.75C46.8401 52.35 40.8101 54.25 36.4401 54.25H36.4501ZM36.4501 39C33.5301 39 31.8201 40.15 31.8201 44.6C31.8201 48.5 33.5701 50.25 36.4501 50.25C39.3301 50.25 41.0901 48.5 41.0901 44.6C41.0901 40.15 39.3801 39 36.4501 39ZM36.4501 24.75C34.3401 24.75 32.7601 26.1 32.7601 30.35C32.7601 33.9 34.3301 35.2 36.4501 35.2C38.5701 35.2 40.1401 33.9 40.1401 30.35C40.1401 26.1 38.5701 24.75 36.4501 24.75Z" fill="white"/>
<path d="M61.2899 54.25C56.9199 54.25 50.8999 52.35 50.8999 44.75C50.8999 38.5 55.4399 36.7 55.4399 36.7C55.4399 36.7 52.0199 35 52.0199 30.2C52.0199 23.3 55.7499 20.7 61.2899 20.7C66.8299 20.7 70.5599 23.3 70.5599 30.2C70.5599 35 67.1399 36.7 67.1399 36.7C67.1399 36.7 71.6799 38.5 71.6799 44.75C71.6799 52.35 65.6499 54.25 61.2899 54.25ZM61.2899 39C58.3699 39 56.6599 40.15 56.6599 44.6C56.6599 48.5 58.4099 50.25 61.2899 50.25C64.1699 50.25 65.9199 48.5 65.9199 44.6C65.9199 40.15 64.2099 39 61.2899 39ZM61.2899 24.75C59.1699 24.75 57.5999 26.1 57.5999 30.35C57.5999 33.9 59.1799 35.2 61.2899 35.2C63.3999 35.2 64.9799 33.9 64.9799 30.35C64.9799 26.1 63.3999 24.75 61.2899 24.75Z" fill="white"/>
</g>
<defs>
<clipPath id="clip0_7_628">
<rect width="99.5" height="71.15" fill="white"/>
</clipPath>
</defs>
</svg>
