<svg width="100" height="72" viewBox="0 0 100 72" fill="none" xmlns="http://www.w3.org/2000/svg">
<g clip-path="url(#clip0_7_623)">
<path d="M100 0H0.5V71.15H100V0Z" fill="#802E77"/>
<path d="M37.2098 54.25C32.8498 54.25 26.8198 52.35 26.8198 44.75C26.8198 38.5 31.3598 36.7 31.3598 36.7C31.3598 36.7 27.9398 35 27.9398 30.2C27.9398 23.3 31.6698 20.7 37.2098 20.7C42.7498 20.7 46.4798 23.3 46.4798 30.2C46.4798 35 43.0598 36.7 43.0598 36.7C43.0598 36.7 47.5998 38.5 47.5998 44.75C47.5998 52.35 41.5698 54.25 37.1998 54.25H37.2098ZM37.2098 39C34.2898 39 32.5798 40.15 32.5798 44.6C32.5798 48.5 34.3298 50.25 37.2098 50.25C40.0898 50.25 41.8498 48.5 41.8498 44.6C41.8498 40.15 40.1398 39 37.2098 39ZM37.2098 24.75C35.0998 24.75 33.5198 26.1 33.5198 30.35C33.5198 33.9 35.0898 35.2 37.2098 35.2C39.3298 35.2 40.8998 33.9 40.8998 30.35C40.8998 26.1 39.3298 24.75 37.2098 24.75Z" fill="white"/>
<path d="M58.8097 54.25C55.7497 54.25 52.5097 53.3 52.5097 53.3L53.1397 48.9C53.1397 48.9 55.7497 49.8 58.2697 49.8C66.1897 49.8 66.0097 42.65 66.0097 39.3C66.0097 39.3 63.2597 41.75 60.0697 41.75C55.2997 41.75 51.6597 39.35 51.6597 31.5C51.6597 22.65 58.1397 20.75 61.3297 20.75C66.3697 20.75 71.9097 22.95 71.9097 36.3C71.9097 45.45 70.0697 54.25 58.8197 54.25H58.8097ZM61.1497 24.65C59.3497 24.65 57.5097 26 57.5097 31.45C57.5097 35.4 58.9897 37.9 61.1097 37.9C63.9397 37.9 65.8297 35.8 65.8297 35.8C65.8297 30.55 65.2897 24.65 61.1497 24.65Z" fill="white"/>
</g>
<defs>
<clipPath id="clip0_7_623">
<rect width="99.5" height="71.15" fill="white" transform="translate(0.5)"/>
</clipPath>
</defs>
</svg>
