<svg width="100" height="72" viewBox="0 0 100 72" fill="none" xmlns="http://www.w3.org/2000/svg">
<g clip-path="url(#clip0_7_1276)">
<path d="M99.5 0H0V71.15H99.5V0Z" fill="#A2C61B"/>
<path d="M47.4801 54.25C44.4201 54.25 41.1801 53.3 41.1801 53.3L41.8101 48.9C41.8101 48.9 44.4201 49.8 46.9401 49.8C54.8601 49.8 54.6801 42.65 54.6801 39.3C54.6801 39.3 51.9301 41.75 48.7401 41.75C43.9701 41.75 40.3201 39.35 40.3201 31.5C40.3201 22.65 46.8001 20.75 49.9901 20.75C55.0301 20.75 60.5601 22.95 60.5601 36.3C60.5601 45.45 58.7201 54.25 47.4701 54.25H47.4801ZM49.8201 24.65C48.0201 24.65 46.1801 26 46.1801 31.45C46.1801 35.4 47.6601 37.9 49.7801 37.9C52.6101 37.9 54.5001 35.8 54.5001 35.8C54.5001 30.55 53.9601 24.65 49.8201 24.65Z" fill="white"/>
</g>
<defs>
<clipPath id="clip0_7_1276">
<rect width="99.5" height="71.15" fill="white"/>
</clipPath>
</defs>
</svg>
