<svg width="100" height="72" viewBox="0 0 100 72" fill="none" xmlns="http://www.w3.org/2000/svg">
<g clip-path="url(#clip0_7_1763)">
<path d="M100 0H0.5V71.15H100V0Z" fill="#A09C9C"/>
<path d="M23.41 54.25C20.35 54.25 17.11 53.3 17.11 53.3L17.74 48.9C17.74 48.9 20.35 49.8 22.87 49.8C30.79 49.8 30.61 42.65 30.61 39.3C30.61 39.3 27.87 41.75 24.67 41.75C19.9 41.75 16.25 39.35 16.25 31.5C16.25 22.65 22.73 20.75 25.92 20.75C30.96 20.75 36.49 22.95 36.49 36.3C36.49 45.45 34.64 54.25 23.4 54.25H23.41ZM25.75 24.65C23.95 24.65 22.11 26 22.11 31.45C22.11 35.4 23.59 37.9 25.71 37.9C28.54 37.9 30.44 35.8 30.44 35.8C30.44 30.55 29.9 24.65 25.76 24.65H25.75Z" fill="white"/>
<path d="M51.3498 54.25C44.2898 54.25 40.5498 49.4 40.5498 37.55C40.5498 26.5 44.1998 20.75 51.3498 20.75C58.4998 20.75 62.1498 26.5 62.1498 37.55C62.1498 49.4 58.4098 54.25 51.3498 54.25ZM51.3498 25C48.3798 25 46.3998 29 46.3998 37.55C46.3998 46.1 48.2898 50 51.3498 50C54.4098 50 56.2998 46.15 56.2998 37.55C56.2998 28.95 54.3198 25 51.3498 25Z" fill="white"/>
<path d="M86.18 53.75H66.34C66.25 53.15 66.21 52.5 66.21 51.9C66.21 38.25 80.02 38.5 80.02 30.5C80.02 26.95 78.08 25.6 75.07 25.6C72.95 25.6 70.44 26.95 68.82 28.4L66.89 24.25C69.1 21.95 72.96 20.75 75.89 20.75C81.34 20.75 85.61 23.1 85.61 29.8C85.61 41.4 72.43 43.45 72.11 49.15L86.55 48.85L86.19 53.75H86.18Z" fill="white"/>
</g>
<defs>
<clipPath id="clip0_7_1763">
<rect width="99.5" height="71.15" fill="white" transform="translate(0.5)"/>
</clipPath>
</defs>
</svg>
