<svg width="100" height="72" viewBox="0 0 100 72" fill="none" xmlns="http://www.w3.org/2000/svg">
<g clip-path="url(#clip0_7_1751)">
<path d="M100 0H0.5V71.15H100V0Z" fill="#A09C9C"/>
<path d="M22.5499 54.25C19.4899 54.25 16.2499 53.3 16.2499 53.3L16.8799 48.9C16.8799 48.9 19.4899 49.8 22.0099 49.8C29.9299 49.8 29.7499 42.65 29.7499 39.3C29.7499 39.3 27.0099 41.75 23.8099 41.75C19.0399 41.75 15.3899 39.35 15.3899 31.5C15.3899 22.65 21.8699 20.75 25.0599 20.75C30.0999 20.75 35.6299 22.95 35.6299 36.3C35.6299 45.45 33.7799 54.25 22.5399 54.25H22.5499ZM24.8899 24.65C23.0899 24.65 21.2499 26 21.2499 31.45C21.2499 35.4 22.7299 37.9 24.8499 37.9C27.6799 37.9 29.5799 35.8 29.5799 35.8C29.5799 30.55 29.0399 24.65 24.8999 24.65H24.8899Z" fill="white"/>
<path d="M50.5 54.25C43.44 54.25 39.7 49.4 39.7 37.55C39.7 26.5 43.35 20.75 50.5 20.75C57.65 20.75 61.2999 26.5 61.2999 37.55C61.2999 49.4 57.57 54.25 50.5 54.25ZM50.5 25C47.53 25 45.5499 29 45.5499 37.55C45.5499 46.1 47.44 50 50.5 50C53.56 50 55.45 46.15 55.45 37.55C55.45 28.95 53.47 25 50.5 25Z" fill="white"/>
<path d="M86.3199 46.5H83.0299L83.1199 53.75H77.5399L77.6299 46.5H65.0799L64.8999 42.15L76.9999 21.25H83.0299V42.1H86.4899L86.3099 46.5H86.3199ZM77.6399 28.05L69.3199 42.1H77.6399V28.05Z" fill="white"/>
</g>
<defs>
<clipPath id="clip0_7_1751">
<rect width="99.5" height="71.15" fill="white" transform="translate(0.5)"/>
</clipPath>
</defs>
</svg>
