<svg width="100" height="72" viewBox="0 0 100 72" fill="none" xmlns="http://www.w3.org/2000/svg">
<g clip-path="url(#clip0_7_1661)">
<path d="M99.5 0H0V71.15H99.5V0Z" fill="#A09C9C"/>
<path d="M26.62 54.25C23.56 54.25 20.32 53.3 20.32 53.3L20.95 48.9C20.95 48.9 23.56 49.8 26.08 49.8C34 49.8 33.82 42.65 33.82 39.3C33.82 39.3 31.08 41.75 27.88 41.75C23.11 41.75 19.46 39.35 19.46 31.5C19.46 22.65 25.94 20.75 29.13 20.75C34.17 20.75 39.7 22.95 39.7 36.3C39.7 45.45 37.85 54.25 26.61 54.25H26.62ZM28.96 24.65C27.16 24.65 25.32 26 25.32 31.45C25.32 35.4 26.8 37.9 28.92 37.9C31.75 37.9 33.65 35.8 33.65 35.8C33.65 30.55 33.11 24.65 28.97 24.65H28.96Z" fill="white"/>
<path d="M50.4198 27.15L44.0798 29.0499L43.0898 23.7999L55.7798 20.7V53.75H50.0598C50.0598 53.75 50.4198 45.3 50.4198 41.75V27.15Z" fill="white"/>
<path d="M68.3299 54.25C65.2699 54.25 62.0299 53.3 62.0299 53.3L62.6599 48.9C62.6599 48.9 65.2699 49.8 67.7899 49.8C75.7099 49.8 75.5299 42.65 75.5299 39.3C75.5299 39.3 72.7799 41.75 69.5899 41.75C64.8199 41.75 61.1799 39.35 61.1799 31.5C61.1799 22.65 67.6599 20.75 70.8499 20.75C75.8899 20.75 81.4299 22.95 81.4299 36.3C81.4299 45.45 79.5899 54.25 68.3399 54.25H68.3299ZM70.6699 24.65C68.8699 24.65 67.0299 26 67.0299 31.45C67.0299 35.4 68.5099 37.9 70.6299 37.9C73.4599 37.9 75.3499 35.8 75.3499 35.8C75.3499 30.55 74.8099 24.65 70.6699 24.65Z" fill="white"/>
</g>
<defs>
<clipPath id="clip0_7_1661">
<rect width="99.5" height="71.15" fill="white"/>
</clipPath>
</defs>
</svg>
