<svg width="100" height="72" viewBox="0 0 100 72" fill="none" xmlns="http://www.w3.org/2000/svg">
<g clip-path="url(#clip0_7_1649)">
<path d="M99.5 0H0V71.15H99.5V0Z" fill="#A09C9C"/>
<path d="M27.0301 54.25C23.9701 54.25 20.7301 53.3 20.7301 53.3L21.3601 48.9C21.3601 48.9 23.9701 49.8 26.4901 49.8C34.4101 49.8 34.2301 42.65 34.2301 39.3C34.2301 39.3 31.4901 41.75 28.2901 41.75C23.5201 41.75 19.8701 39.35 19.8701 31.5C19.8701 22.65 26.3501 20.75 29.5401 20.75C34.5801 20.75 40.1101 22.95 40.1101 36.3C40.1101 45.45 38.2601 54.25 27.0201 54.25H27.0301ZM29.3701 24.65C27.5701 24.65 25.7301 26 25.7301 31.45C25.7301 35.4 27.2101 37.9 29.3301 37.9C32.1601 37.9 34.0601 35.8 34.0601 35.8C34.0601 30.55 33.5201 24.65 29.3801 24.65H29.3701Z" fill="white"/>
<path d="M64.1502 53.75H44.3102C44.2202 53.15 44.1702 52.5 44.1702 51.9C44.1702 38.25 57.9802 38.5 57.9802 30.5C57.9802 26.95 56.0402 25.6 53.0302 25.6C50.9202 25.6 48.4002 26.95 46.7802 28.4L44.8502 24.25C47.0502 21.95 50.9202 20.75 53.8502 20.75C59.3002 20.75 63.5702 23.1 63.5702 29.8C63.5702 41.4 50.3902 43.45 50.0702 49.15L64.5102 48.85L64.1502 53.75Z" fill="white"/>
<path d="M74.3202 27.15L67.9802 29.0499L66.9902 23.7999L79.6802 20.7V53.75H73.9702C73.9702 53.75 74.3302 45.3 74.3302 41.75V27.15H74.3202Z" fill="white"/>
</g>
<defs>
<clipPath id="clip0_7_1649">
<rect width="99.5" height="71.15" fill="white"/>
</clipPath>
</defs>
</svg>
