<svg width="100" height="72" viewBox="0 0 100 72" fill="none" xmlns="http://www.w3.org/2000/svg">
<g clip-path="url(#clip0_7_1643)">
<path d="M100 0H0.5V71.15H100V0Z" fill="#A09C9C"/>
<path d="M24.49 54.25C21.43 54.25 18.19 53.3 18.19 53.3L18.82 48.9C18.82 48.9 21.43 49.8 23.95 49.8C31.87 49.8 31.69 42.65 31.69 39.3C31.69 39.3 28.95 41.75 25.75 41.75C20.98 41.75 17.33 39.35 17.33 31.5C17.33 22.65 23.81 20.75 27 20.75C32.04 20.75 37.57 22.95 37.57 36.3C37.57 45.45 35.72 54.25 24.48 54.25H24.49ZM26.83 24.65C25.03 24.65 23.19 26 23.19 31.45C23.19 35.4 24.67 37.9 26.79 37.9C29.62 37.9 31.52 35.8 31.52 35.8C31.52 30.55 30.98 24.65 26.84 24.65H26.83Z" fill="white"/>
<path d="M61.61 53.75H41.77C41.68 53.15 41.63 52.5 41.63 51.9C41.63 38.25 55.44 38.5 55.44 30.5C55.44 26.95 53.51 25.6 50.49 25.6C48.38 25.6 45.86 26.95 44.24 28.4L42.31 24.25C44.51 21.95 48.38 20.75 51.31 20.75C56.75 20.75 61.03 23.1 61.03 29.8C61.03 41.4 47.85 43.45 47.53 49.15L61.97 48.85L61.61 53.75Z" fill="white"/>
<path d="M85.0999 53.75H65.2599C65.1699 53.15 65.1299 52.5 65.1299 51.9C65.1299 38.25 78.9399 38.5 78.9399 30.5C78.9399 26.95 76.9999 25.6 73.9899 25.6C71.8699 25.6 69.3599 26.95 67.7399 28.4L65.8099 24.25C68.0199 21.95 71.8799 20.75 74.8099 20.75C80.2599 20.75 84.5299 23.1 84.5299 29.8C84.5299 41.4 71.3499 43.45 71.0299 49.15L85.4699 48.85L85.1099 53.75H85.0999Z" fill="white"/>
</g>
<defs>
<clipPath id="clip0_7_1643">
<rect width="99.5" height="71.15" fill="white" transform="translate(0.5)"/>
</clipPath>
</defs>
</svg>
