<svg width="100" height="72" viewBox="0 0 100 72" fill="none" xmlns="http://www.w3.org/2000/svg">
<g clip-path="url(#clip0_7_1637)">
<path d="M99.5 0H0V71.15H99.5V0Z" fill="#A09C9C"/>
<path d="M23.83 54.25C20.77 54.25 17.53 53.3 17.53 53.3L18.16 48.9C18.16 48.9 20.77 49.8 23.29 49.8C31.21 49.8 31.03 42.65 31.03 39.3C31.03 39.3 28.29 41.75 25.09 41.75C20.32 41.75 16.67 39.35 16.67 31.5C16.67 22.65 23.15 20.75 26.34 20.75C31.38 20.75 36.91 22.95 36.91 36.3C36.91 45.45 35.06 54.25 23.82 54.25H23.83ZM26.17 24.65C24.37 24.65 22.53 26 22.53 31.45C22.53 35.4 24.01 37.9 26.13 37.9C28.96 37.9 30.86 35.8 30.86 35.8C30.86 30.55 30.32 24.65 26.18 24.65H26.17Z" fill="white"/>
<path d="M60.9501 53.75H41.1101C41.0201 53.15 40.9701 52.5 40.9701 51.9C40.9701 38.25 54.7801 38.5 54.7801 30.5C54.7801 26.95 52.8501 25.6 49.8301 25.6C47.7201 25.6 45.2001 26.95 43.5801 28.4L41.6501 24.25C43.8501 21.95 47.7201 20.75 50.6501 20.75C56.0901 20.75 60.3701 23.1 60.3701 29.8C60.3701 41.4 47.1901 43.45 46.8701 49.15L61.3101 48.85L60.9501 53.75Z" fill="white"/>
<path d="M73.1 54.25C70.44 54.25 66.35 53.5 64.01 52.1L65 47.6C67.16 48.8 70.17 49.75 72.56 49.75C76.07 49.75 78.36 48.05 78.36 43.9C78.36 40.5 76.15 38.9 73.32 38.9H69.68L69.86 34.35H73.32C75.61 34.35 76.96 32.55 76.96 30.05C76.96 26.65 75.07 25.35 72.24 25.35C70.35 25.35 67.92 26.1 66.21 27.15L65.13 22.85C67.29 21.65 70.3 20.75 72.69 20.75C77.77 20.75 82.81 22.75 82.81 29.4C82.81 32.15 81.82 34.55 79.57 35.85C82.76 37.1 84.2 40.3 84.2 43.9C84.2 51.35 79.12 54.25 73.09 54.25H73.1Z" fill="white"/>
</g>
<defs>
<clipPath id="clip0_7_1637">
<rect width="99.5" height="71.15" fill="white"/>
</clipPath>
</defs>
</svg>
