<svg width="100" height="72" viewBox="0 0 100 72" fill="none" xmlns="http://www.w3.org/2000/svg">
<g clip-path="url(#clip0_7_1631)">
<path d="M100 0H0.5V71.15H100V0Z" fill="#A09C9C"/>
<path d="M23.63 54.25C20.57 54.25 17.33 53.3 17.33 53.3L17.96 48.9C17.96 48.9 20.57 49.8 23.09 49.8C31.01 49.8 30.83 42.65 30.83 39.3C30.83 39.3 28.09 41.75 24.89 41.75C20.12 41.75 16.47 39.35 16.47 31.5C16.47 22.65 22.95 20.75 26.14 20.75C31.18 20.75 36.71 22.95 36.71 36.3C36.71 45.45 34.86 54.25 23.62 54.25H23.63ZM25.97 24.65C24.17 24.65 22.33 26 22.33 31.45C22.33 35.4 23.81 37.9 25.93 37.9C28.76 37.9 30.66 35.8 30.66 35.8C30.66 30.55 30.12 24.65 25.98 24.65H25.97Z" fill="white"/>
<path d="M60.76 53.75H40.92C40.83 53.15 40.78 52.5 40.78 51.9C40.78 38.25 54.59 38.5 54.59 30.5C54.59 26.95 52.65 25.6 49.64 25.6C47.53 25.6 45.01 26.95 43.39 28.4L41.46 24.25C43.66 21.95 47.53 20.75 50.46 20.75C55.9 20.75 60.18 23.1 60.18 29.8C60.18 41.4 47 43.45 46.68 49.15L61.12 48.85L60.76 53.75Z" fill="white"/>
<path d="M85.2399 46.5H81.9499L82.0399 53.75H76.4599L76.5499 46.5H63.9999L63.8199 42.15L75.9199 21.25H81.9499V42.1H85.41L85.2299 46.5H85.2399ZM76.5599 28.05L68.2399 42.1H76.5599V28.05Z" fill="white"/>
</g>
<defs>
<clipPath id="clip0_7_1631">
<rect width="99.5" height="71.15" fill="white" transform="translate(0.5)"/>
</clipPath>
</defs>
</svg>
