<svg width="101" height="72" viewBox="0 0 101 72" fill="none" xmlns="http://www.w3.org/2000/svg">
<g clip-path="url(#clip0_7_1860)">
<path d="M100.06 0H0.560059V71.15H100.06V0Z" fill="#A09C9C"/>
<path d="M22.6102 54.25C19.5502 54.25 16.3102 53.3 16.3102 53.3L16.9402 48.9C16.9402 48.9 19.5502 49.8 22.0702 49.8C29.9902 49.8 29.8102 42.65 29.8102 39.3C29.8102 39.3 27.0702 41.75 23.8702 41.75C19.1002 41.75 15.4502 39.35 15.4502 31.5C15.4502 22.65 21.9302 20.75 25.1202 20.75C30.1602 20.75 35.6902 22.95 35.6902 36.3C35.6902 45.45 33.8402 54.25 22.6002 54.25H22.6102ZM24.9502 24.65C23.1502 24.65 21.3102 26 21.3102 31.45C21.3102 35.4 22.7902 37.9 24.9102 37.9C27.7402 37.9 29.6402 35.8 29.6402 35.8C29.6402 30.55 29.1002 24.65 24.9602 24.65H24.9502Z" fill="white"/>
<path d="M60.7301 46.5H57.4401L57.5301 53.75H51.9501L52.0401 46.5H39.4901L39.3101 42.15L51.4101 21.25H57.4401V42.1H60.9001L60.7201 46.5H60.7301ZM52.0501 28.05L43.7301 42.1H52.0501V28.05Z" fill="white"/>
<path d="M75.76 54.25C68.7 54.25 64.96 49.4 64.96 37.55C64.96 26.5 68.6 20.75 75.76 20.75C82.92 20.75 86.56 26.5 86.56 37.55C86.56 49.4 82.83 54.25 75.76 54.25ZM75.76 25C72.79 25 70.81 29 70.81 37.55C70.81 46.1 72.7 50 75.76 50C78.82 50 80.71 46.15 80.71 37.55C80.71 28.95 78.73 25 75.76 25Z" fill="white"/>
</g>
<defs>
<clipPath id="clip0_7_1860">
<rect width="99.5" height="71.15" fill="white" transform="translate(0.560059)"/>
</clipPath>
</defs>
</svg>
