<svg width="100" height="72" viewBox="0 0 100 72" fill="none" xmlns="http://www.w3.org/2000/svg">
<g clip-path="url(#clip0_7_1854)">
<path d="M99.5601 0H0.0600586V71.15H99.5601V0Z" fill="#A09C9C"/>
<path d="M26.2298 54.25C23.1698 54.25 19.9298 53.3 19.9298 53.3L20.5598 48.9C20.5598 48.9 23.1698 49.8 25.6898 49.8C33.6098 49.8 33.4298 42.65 33.4298 39.3C33.4298 39.3 30.6898 41.75 27.4898 41.75C22.7198 41.75 19.0698 39.35 19.0698 31.5C19.0698 22.65 25.5498 20.75 28.7398 20.75C33.7798 20.75 39.3098 22.95 39.3098 36.3C39.3098 45.45 37.4598 54.25 26.2198 54.25H26.2298ZM28.5698 24.65C26.7698 24.65 24.9298 26 24.9298 31.45C24.9298 35.4 26.4098 37.9 28.5298 37.9C31.3598 37.9 33.2598 35.8 33.2598 35.8C33.2598 30.55 32.7198 24.65 28.5798 24.65H28.5698Z" fill="white"/>
<path d="M64.3399 46.5H61.0499L61.1399 53.75H55.5599L55.6499 46.5H43.0999L42.9199 42.15L55.0199 21.25H61.0499V42.1H64.5099L64.3299 46.5H64.3399ZM55.6599 28.05L47.3399 42.1H55.6599V28.05Z" fill="white"/>
<path d="M75.2299 27.15L68.8899 29.0499L67.8999 23.7999L80.5899 20.7V53.75H74.8799C74.8799 53.75 75.2399 45.3 75.2399 41.75V27.15H75.2299Z" fill="white"/>
</g>
<defs>
<clipPath id="clip0_7_1854">
<rect width="99.5" height="71.15" fill="white" transform="translate(0.0600586)"/>
</clipPath>
</defs>
</svg>
