<svg width="101" height="72" viewBox="0 0 101 72" fill="none" xmlns="http://www.w3.org/2000/svg">
<g clip-path="url(#clip0_7_1848)">
<path d="M100.06 0H0.560059V71.15H100.06V0Z" fill="#A09C9C"/>
<path d="M23.6903 54.25C20.6303 54.25 17.3903 53.3 17.3903 53.3L18.0203 48.9C18.0203 48.9 20.6303 49.8 23.1503 49.8C31.0703 49.8 30.8903 42.65 30.8903 39.3C30.8903 39.3 28.1503 41.75 24.9503 41.75C20.1803 41.75 16.5303 39.35 16.5303 31.5C16.5303 22.65 23.0103 20.75 26.2003 20.75C31.2403 20.75 36.7703 22.95 36.7703 36.3C36.7703 45.45 34.9203 54.25 23.6803 54.25H23.6903ZM26.0303 24.65C24.2303 24.65 22.3903 26 22.3903 31.45C22.3903 35.4 23.8703 37.9 25.9903 37.9C28.8203 37.9 30.7203 35.8 30.7203 35.8C30.7203 30.55 30.1803 24.65 26.0403 24.65H26.0303Z" fill="white"/>
<path d="M61.8101 46.5H58.5201L58.6101 53.75H53.0301L53.1201 46.5H40.5701L40.3901 42.15L52.4901 21.25H58.5201V42.1H61.9801L61.8001 46.5H61.8101ZM53.1301 28.05L44.8101 42.1H53.1301V28.05Z" fill="white"/>
<path d="M86.0203 53.75H66.1803C66.0903 53.15 66.0503 52.5 66.0503 51.9C66.0503 38.25 79.8603 38.5 79.8603 30.5C79.8603 26.95 77.9203 25.6 74.9103 25.6C72.7903 25.6 70.2803 26.95 68.6603 28.4L66.7303 24.25C68.9403 21.95 72.8003 20.75 75.7303 20.75C81.1803 20.75 85.4503 23.1 85.4503 29.8C85.4503 41.4 72.2703 43.45 71.9503 49.15L86.3903 48.85L86.0303 53.75H86.0203Z" fill="white"/>
</g>
<defs>
<clipPath id="clip0_7_1848">
<rect width="99.5" height="71.15" fill="white" transform="translate(0.560059)"/>
</clipPath>
</defs>
</svg>
