<svg width="100" height="72" viewBox="0 0 100 72" fill="none" xmlns="http://www.w3.org/2000/svg">
<g clip-path="url(#clip0_7_1842)">
<path d="M99.5601 0H0.0600586V71.15H99.5601V0Z" fill="#A09C9C"/>
<path d="M23.0399 54.25C19.9799 54.25 16.7399 53.3 16.7399 53.3L17.3699 48.9C17.3699 48.9 19.9799 49.8 22.4999 49.8C30.4199 49.8 30.2399 42.65 30.2399 39.3C30.2399 39.3 27.4999 41.75 24.2999 41.75C19.5299 41.75 15.8799 39.35 15.8799 31.5C15.8799 22.65 22.3599 20.75 25.5499 20.75C30.5899 20.75 36.1199 22.95 36.1199 36.3C36.1199 45.45 34.2699 54.25 23.0299 54.25H23.0399ZM25.3799 24.65C23.5799 24.65 21.7399 26 21.7399 31.45C21.7399 35.4 23.2199 37.9 25.3399 37.9C28.1699 37.9 30.0699 35.8 30.0699 35.8C30.0699 30.55 29.5299 24.65 25.3899 24.65H25.3799Z" fill="white"/>
<path d="M61.15 46.5H57.86L57.95 53.75H52.37L52.46 46.5H39.91L39.73 42.15L51.83 21.25H57.86V42.1H61.32L61.14 46.5H61.15ZM52.47 28.05L44.15 42.1H52.47V28.05Z" fill="white"/>
<path d="M74.0197 54.25C71.3597 54.25 67.2697 53.5 64.9297 52.1L65.9197 47.6C68.0797 48.8 71.0897 49.75 73.4797 49.75C76.9897 49.75 79.2797 48.05 79.2797 43.9C79.2797 40.5 77.0697 38.9 74.2397 38.9H70.5997L70.7797 34.35H74.2397C76.5297 34.35 77.8797 32.55 77.8797 30.05C77.8797 26.65 75.9897 25.35 73.1597 25.35C71.2697 25.35 68.8397 26.1 67.1297 27.15L66.0497 22.85C68.2097 21.65 71.2197 20.75 73.6097 20.75C78.6897 20.75 83.7297 22.75 83.7297 29.4C83.7297 32.15 82.7397 34.55 80.4897 35.85C83.6797 37.1 85.1197 40.3 85.1197 43.9C85.1197 51.35 80.0397 54.25 74.0097 54.25H74.0197Z" fill="white"/>
</g>
<defs>
<clipPath id="clip0_7_1842">
<rect width="99.5" height="71.15" fill="white" transform="translate(0.0600586)"/>
</clipPath>
</defs>
</svg>
