<svg width="101" height="72" viewBox="0 0 101 72" fill="none" xmlns="http://www.w3.org/2000/svg">
<g clip-path="url(#clip0_7_1836)">
<path d="M100.06 0H0.560059V71.15H100.06V0Z" fill="#A09C9C"/>
<path d="M22.8402 54.25C19.7802 54.25 16.5402 53.3 16.5402 53.3L17.1702 48.9C17.1702 48.9 19.7802 49.8 22.3002 49.8C30.2202 49.8 30.0402 42.65 30.0402 39.3C30.0402 39.3 27.3002 41.75 24.1002 41.75C19.3302 41.75 15.6802 39.35 15.6802 31.5C15.6802 22.65 22.1602 20.75 25.3502 20.75C30.3902 20.75 35.9202 22.95 35.9202 36.3C35.9202 45.45 34.0702 54.25 22.8302 54.25H22.8402ZM25.1802 24.65C23.3802 24.65 21.5402 26 21.5402 31.45C21.5402 35.4 23.0202 37.9 25.1402 37.9C27.9702 37.9 29.8702 35.8 29.8702 35.8C29.8702 30.55 29.3302 24.65 25.1902 24.65H25.1802Z" fill="white"/>
<path d="M60.9503 46.5H57.6603L57.7503 53.75H52.1703L52.2603 46.5H39.7103L39.5303 42.15L51.6303 21.25H57.6603V42.1H61.1203L60.9403 46.5H60.9503ZM52.2703 28.05L43.9503 42.1H52.2703V28.05Z" fill="white"/>
<path d="M86.15 46.5H82.86L82.95 53.75H77.37L77.46 46.5H64.91L64.73 42.15L76.83 21.25H82.86V42.1H86.32L86.14 46.5H86.15ZM77.47 28.05L69.15 42.1H77.47V28.05Z" fill="white"/>
</g>
<defs>
<clipPath id="clip0_7_1836">
<rect width="99.5" height="71.15" fill="white" transform="translate(0.560059)"/>
</clipPath>
</defs>
</svg>
