<svg width="100" height="72" viewBox="0 0 100 72" fill="none" xmlns="http://www.w3.org/2000/svg">
<g clip-path="url(#clip0_7_1830)">
<path d="M99.5601 0H0.0600586V71.15H99.5601V0Z" fill="#A09C9C"/>
<path d="M22.7899 54.25C19.7299 54.25 16.4899 53.3 16.4899 53.3L17.1199 48.9C17.1199 48.9 19.7299 49.8 22.2499 49.8C30.1699 49.8 29.9899 42.65 29.9899 39.3C29.9899 39.3 27.2499 41.75 24.0499 41.75C19.2799 41.75 15.6299 39.35 15.6299 31.5C15.6299 22.65 22.1099 20.75 25.2999 20.75C30.3399 20.75 35.8699 22.95 35.8699 36.3C35.8699 45.45 34.0199 54.25 22.7799 54.25H22.7899ZM25.1299 24.65C23.3299 24.65 21.4899 26 21.4899 31.45C21.4899 35.4 22.9699 37.9 25.0899 37.9C27.9199 37.9 29.8199 35.8 29.8199 35.8C29.8199 30.55 29.2799 24.65 25.1399 24.65H25.1299Z" fill="white"/>
<path d="M60.9 46.5H57.61L57.7 53.75H52.12L52.21 46.5H39.66L39.48 42.15L51.58 21.25H57.61V42.1H61.07L60.89 46.5H60.9ZM52.22 28.05L43.9 42.1H52.22V28.05Z" fill="white"/>
<path d="M74.5396 54.25C71.4397 54.25 68.1096 53.75 65.1396 52.75L66.2197 48.05C68.4697 49 71.5696 49.85 73.9596 49.85C77.0596 49.85 79.5396 47.65 79.5396 44.05C79.5396 39.75 77.1596 37.85 73.4596 37.85C71.4396 37.85 69.3696 38.0501 67.3396 38.4001L68.5096 21.3H84.4796L84.1196 25.9501L73.3196 25.75L72.6896 34.2001C73.8996 34.0001 75.1196 33.85 76.3296 33.85C82.3196 33.85 85.3696 37.6001 85.3696 44.1501C85.3696 51.4001 80.3696 54.25 74.5296 54.25H74.5396Z" fill="white"/>
</g>
<defs>
<clipPath id="clip0_7_1830">
<rect width="99.5" height="71.15" fill="white" transform="translate(0.0600586)"/>
</clipPath>
</defs>
</svg>
