<svg width="101" height="72" viewBox="0 0 101 72" fill="none" xmlns="http://www.w3.org/2000/svg">
<g clip-path="url(#clip0_7_1812)">
<path d="M100.06 0H0.560059V71.15H100.06V0Z" fill="#A09C9C"/>
<path d="M25.2699 54.25C22.2099 54.25 18.9699 53.3 18.9699 53.3L19.5999 48.9C19.5999 48.9 22.2099 49.8 24.7299 49.8C32.6499 49.8 32.4699 42.65 32.4699 39.3C32.4699 39.3 29.7299 41.75 26.5299 41.75C21.7599 41.75 18.1099 39.35 18.1099 31.5C18.1099 22.65 24.5899 20.75 27.7799 20.75C32.8199 20.75 38.3499 22.95 38.3499 36.3C38.3499 45.45 36.4999 54.25 25.2599 54.25H25.2699ZM27.6099 24.65C25.8099 24.65 23.9699 26 23.9699 31.45C23.9699 35.4 25.4499 37.9 27.5699 37.9C30.3999 37.9 32.2999 35.8 32.2999 35.8C32.2999 30.55 31.7599 24.65 27.6199 24.65H27.6099Z" fill="white"/>
<path d="M52.8999 54.25C47.8599 54.25 42.4199 52.65 42.4199 38.7C42.4199 29.55 46.2499 20.75 55.4199 20.75C58.4799 20.75 60.4099 21.4 60.9499 21.55L60.3199 25.95C60.3199 25.95 58.4799 25.2 55.9599 25.2C50.4699 25.2 49.0299 30.6 48.8499 36.3C50.2899 35.2 51.1899 33.85 54.1599 33.85C58.5199 33.85 62.6599 36.3 62.6599 43.8C62.6599 52.65 56.0899 54.25 52.8999 54.25ZM53.1299 37.7C50.6499 37.7 48.8599 39.9 48.8599 39.9C48.8599 46.1 50.0699 50.35 53.0899 50.35C55.1099 50.35 56.8199 48.9 56.8199 43.85C56.8199 39.45 55.6999 37.7 53.1299 37.7Z" fill="white"/>
<path d="M74.4498 53.75H68.3298C69.9898 45.55 74.5798 32.35 79.3098 25.8L66.6198 26L66.2598 21.25H85.2498V24.75C80.8398 31.5 75.7098 45.55 74.4498 53.75Z" fill="white"/>
</g>
<defs>
<clipPath id="clip0_7_1812">
<rect width="99.5" height="71.15" fill="white" transform="translate(0.560059)"/>
</clipPath>
</defs>
</svg>
