<svg width="100" height="72" viewBox="0 0 100 72" fill="none" xmlns="http://www.w3.org/2000/svg">
<g clip-path="url(#clip0_7_1794)">
<path d="M99.5601 0H0.0600586V71.15H99.5601V0Z" fill="#A09C9C"/>
<path d="M24.7699 54.25C21.7099 54.25 18.4699 53.3 18.4699 53.3L19.0999 48.9C19.0999 48.9 21.7099 49.8 24.2299 49.8C32.1499 49.8 31.9699 42.65 31.9699 39.3C31.9699 39.3 29.2299 41.75 26.0299 41.75C21.2599 41.75 17.6099 39.35 17.6099 31.5C17.6099 22.65 24.0899 20.75 27.2799 20.75C32.3199 20.75 37.8499 22.95 37.8499 36.3C37.8499 45.45 35.9999 54.25 24.7599 54.25H24.7699ZM27.1099 24.65C25.3099 24.65 23.4699 26 23.4699 31.45C23.4699 35.4 24.9499 37.9 27.0699 37.9C29.8999 37.9 31.7999 35.8 31.7999 35.8C31.7999 30.55 31.2599 24.65 27.1199 24.65H27.1099Z" fill="white"/>
<path d="M49.65 53.75H43.53C45.2 45.55 49.78 32.35 54.51 25.8L41.82 26L41.46 21.25H60.45V24.75C56.04 31.5 50.91 45.55 49.65 53.75Z" fill="white"/>
<path d="M72.5597 54.25C69.4597 54.25 66.1297 53.75 63.1597 52.75L64.2397 48.05C66.4897 49 69.5897 49.85 71.9797 49.85C75.0797 49.85 77.5597 47.65 77.5597 44.05C77.5597 39.75 75.1797 37.85 71.4797 37.85C69.4597 37.85 67.3897 38.0501 65.3597 38.4001L66.5297 21.3H82.4997L82.1397 25.9501L71.3397 25.75L70.7097 34.2001C71.9197 34.0001 73.1397 33.85 74.3497 33.85C80.3397 33.85 83.3897 37.6001 83.3897 44.1501C83.3897 51.4001 78.3897 54.25 72.5497 54.25H72.5597Z" fill="white"/>
</g>
<defs>
<clipPath id="clip0_7_1794">
<rect width="99.5" height="71.15" fill="white" transform="translate(0.0600586)"/>
</clipPath>
</defs>
</svg>
