<svg width="101" height="72" viewBox="0 0 101 72" fill="none" xmlns="http://www.w3.org/2000/svg">
<g clip-path="url(#clip0_7_1788)">
<path d="M100.06 0H0.560059V71.15H100.06V0Z" fill="#A09C9C"/>
<path d="M24.9998 54.25C21.9398 54.25 18.6998 53.3 18.6998 53.3L19.3298 48.9C19.3298 48.9 21.9398 49.8 24.4598 49.8C32.3798 49.8 32.1998 42.65 32.1998 39.3C32.1998 39.3 29.4598 41.75 26.2598 41.75C21.4898 41.75 17.8398 39.35 17.8398 31.5C17.8398 22.65 24.3198 20.75 27.5098 20.75C32.5498 20.75 38.0798 22.95 38.0798 36.3C38.0798 45.45 36.2298 54.25 24.9898 54.25H24.9998ZM27.3398 24.65C25.5398 24.65 23.6998 26 23.6998 31.45C23.6998 35.4 25.1798 37.9 27.2998 37.9C30.1298 37.9 32.0298 35.8 32.0298 35.8C32.0298 30.55 31.4898 24.65 27.3498 24.65H27.3398Z" fill="white"/>
<path d="M49.8799 53.75H43.7599C45.4299 45.55 50.0099 32.35 54.7399 25.8L42.0499 26L41.6899 21.25H60.6799V24.75C56.2699 31.5 51.1399 45.55 49.8799 53.75Z" fill="white"/>
<path d="M73.7796 54.25C69.4096 54.25 63.3896 52.35 63.3896 44.75C63.3896 38.5 67.9296 36.7 67.9296 36.7C67.9296 36.7 64.5096 35 64.5096 30.2C64.5096 23.3 68.2396 20.7 73.7796 20.7C79.3196 20.7 83.0496 23.3 83.0496 30.2C83.0496 35 79.6296 36.7 79.6296 36.7C79.6296 36.7 84.1696 38.5 84.1696 44.75C84.1696 52.35 78.1396 54.25 73.7796 54.25ZM73.7796 39C70.8596 39 69.1496 40.1499 69.1496 44.5999C69.1496 48.4999 70.8996 50.25 73.7796 50.25C76.6596 50.25 78.4096 48.4999 78.4096 44.5999C78.4096 40.1499 76.6996 39 73.7796 39ZM73.7796 24.75C71.6596 24.75 70.0896 26.1 70.0896 30.35C70.0896 33.9 71.6696 35.2 73.7796 35.2C75.8896 35.2 77.4697 33.9 77.4697 30.35C77.4697 26.1 75.8896 24.75 73.7796 24.75Z" fill="white"/>
</g>
<defs>
<clipPath id="clip0_7_1788">
<rect width="99.5" height="71.15" fill="white" transform="translate(0.560059)"/>
</clipPath>
</defs>
</svg>
