<svg width="100" height="72" viewBox="0 0 100 72" fill="none" xmlns="http://www.w3.org/2000/svg">
<g clip-path="url(#clip0_7_1181)">
<path d="M99.5 0H0V71.15H99.5V0Z" fill="#E6007D"/>
<path d="M30.3899 54.25C22.3399 54.25 16.3999 48.15 16.3999 37.65C16.3999 27.15 21.9299 20.75 29.9899 20.75C36.2899 20.75 38.3599 22.5 38.3599 22.5L37.2799 27.25C37.2799 27.25 34.6699 25.65 31.1199 25.65C26.1699 25.65 22.2599 29.5 22.2599 37.65C22.2599 45.8 26.0799 49.7 31.1699 49.7C34.0499 49.7 37.5099 47.9 37.5099 47.9L38.9499 52.15C38.9499 52.15 36.0299 54.25 30.3999 54.25H30.3899Z" fill="white"/>
<path d="M48.5297 27.15L42.1897 29.05L41.1997 23.8L53.8897 20.7V53.75H48.1697C48.1697 53.75 48.5297 45.3 48.5297 41.75V27.15Z" fill="white"/>
<path d="M70.0798 54.25C63.0198 54.25 59.2798 49.4 59.2798 37.55C59.2798 26.5 62.9198 20.75 70.0798 20.75C77.2398 20.75 80.8798 26.5 80.8798 37.55C80.8798 49.4 77.1498 54.25 70.0798 54.25ZM70.0798 25C67.1098 25 65.1298 29 65.1298 37.55C65.1298 46.1 67.0198 50 70.0798 50C73.1398 50 75.0298 46.15 75.0298 37.55C75.0298 28.95 73.0498 25 70.0798 25Z" fill="white"/>
</g>
<defs>
<clipPath id="clip0_7_1181">
<rect width="99.5" height="71.15" fill="white"/>
</clipPath>
</defs>
</svg>
