<svg width="100" height="72" viewBox="0 0 100 72" fill="none" xmlns="http://www.w3.org/2000/svg">
<g clip-path="url(#clip0_7_1169)">
<path d="M99.5 0H0V71.15H99.5V0Z" fill="#F088B6"/>
<path d="M31.47 54.25C23.42 54.25 17.48 48.15 17.48 37.65C17.48 27.15 23.01 20.75 31.07 20.75C37.37 20.75 39.44 22.5 39.44 22.5L38.36 27.25C38.36 27.25 35.75 25.65 32.2 25.65C27.25 25.65 23.34 29.5 23.34 37.65C23.34 45.8 27.16 49.7 32.25 49.7C35.13 49.7 38.59 47.9 38.59 47.9L40.03 52.15C40.03 52.15 37.11 54.25 31.48 54.25H31.47Z" fill="white"/>
<path d="M49.6098 27.15L43.2698 29.05L42.2798 23.8L54.9698 20.7V53.75H49.2498C49.2498 53.75 49.6098 45.3 49.6098 41.75V27.15Z" fill="white"/>
<path d="M80.3401 53.75H60.5001C60.4101 53.15 60.3701 52.5 60.3701 51.9C60.3701 38.25 74.1801 38.5 74.1801 30.5C74.1801 26.95 72.2401 25.6 69.2301 25.6C67.1101 25.6 64.6001 26.95 62.9801 28.4L61.0501 24.25C63.2601 21.95 67.1201 20.75 70.0501 20.75C75.5001 20.75 79.7701 23.1 79.7701 29.8C79.7701 41.4 66.5901 43.45 66.2701 49.15L80.7101 48.85L80.3501 53.75H80.3401Z" fill="white"/>
</g>
<defs>
<clipPath id="clip0_7_1169">
<rect width="99.5" height="71.15" fill="white"/>
</clipPath>
</defs>
</svg>
