<svg width="100" height="72" viewBox="0 0 100 72" fill="none" xmlns="http://www.w3.org/2000/svg">
<g clip-path="url(#clip0_7_1192)">
<path d="M99.5 0H0V71.15H99.5V0Z" fill="#F088B6"/>
<path d="M39.51 54.25C31.46 54.25 25.52 48.15 25.52 37.65C25.52 27.15 31.05 20.75 39.11 20.75C45.41 20.75 47.48 22.5 47.48 22.5L46.4 27.25C46.4 27.25 43.79 25.65 40.24 25.65C35.29 25.65 31.38 29.5 31.38 37.65C31.38 45.8 35.2 49.7 40.29 49.7C43.17 49.7 46.63 47.9 46.63 47.9L48.07 52.15C48.07 52.15 45.15 54.25 39.52 54.25H39.51Z" fill="white"/>
<path d="M61.3802 54.25C57.0202 54.25 50.9902 52.35 50.9902 44.75C50.9902 38.5 55.5302 36.7 55.5302 36.7C55.5302 36.7 52.1102 35 52.1102 30.2C52.1102 23.3 55.8502 20.7 61.3802 20.7C66.9102 20.7 70.6502 23.3 70.6502 30.2C70.6502 35 67.2302 36.7 67.2302 36.7C67.2302 36.7 71.7702 38.5 71.7702 44.75C71.7702 52.35 65.7402 54.25 61.3802 54.25ZM61.3802 39C58.4602 39 56.7502 40.15 56.7502 44.6C56.7502 48.5 58.5002 50.25 61.3802 50.25C64.2602 50.25 66.0102 48.5 66.0102 44.6C66.0102 40.15 64.3002 39 61.3802 39ZM61.3802 24.75C59.2702 24.75 57.6902 26.1 57.6902 30.35C57.6902 33.9 59.2702 35.2 61.3802 35.2C63.4902 35.2 65.0702 33.9 65.0702 30.35C65.0702 26.1 63.4902 24.75 61.3802 24.75Z" fill="white"/>
</g>
<defs>
<clipPath id="clip0_7_1192">
<rect width="99.5" height="71.15" fill="white"/>
</clipPath>
</defs>
</svg>
