<svg width="100" height="72" viewBox="0 0 100 72" fill="none" xmlns="http://www.w3.org/2000/svg">
<g clip-path="url(#clip0_7_1187)">
<path d="M100 0H0.5V71.15H100V0Z" fill="#E6007D"/>
<path d="M40.2698 54.25C32.2198 54.25 26.2798 48.15 26.2798 37.65C26.2798 27.15 31.8098 20.75 39.8698 20.75C46.1698 20.75 48.2398 22.5 48.2398 22.5L47.1598 27.25C47.1598 27.25 44.5498 25.65 40.9998 25.65C36.0498 25.65 32.1398 29.5 32.1398 37.65C32.1398 45.8 35.9598 49.7 41.0498 49.7C43.9298 49.7 47.3898 47.9 47.3898 47.9L48.8298 52.15C48.8298 52.15 45.9098 54.25 40.2798 54.25H40.2698Z" fill="white"/>
<path d="M58.91 54.25C55.85 54.25 52.61 53.3 52.61 53.3L53.24 48.9C53.24 48.9 55.85 49.8 58.37 49.8C66.29 49.8 66.11 42.65 66.11 39.3C66.11 39.3 63.36 41.75 60.17 41.75C55.4 41.75 51.75 39.35 51.75 31.5C51.75 22.65 58.23 20.75 61.42 20.75C66.46 20.75 71.99 22.95 71.99 36.3C71.99 45.45 70.15 54.25 58.9 54.25H58.91ZM61.25 24.65C59.45 24.65 57.6 26 57.6 31.45C57.6 35.4 59.09 37.9 61.2 37.9C64.03 37.9 65.92 35.8 65.92 35.8C65.92 30.55 65.38 24.65 61.24 24.65H61.25Z" fill="white"/>
</g>
<defs>
<clipPath id="clip0_7_1187">
<rect width="99.5" height="71.15" fill="white" transform="translate(0.5)"/>
</clipPath>
</defs>
</svg>
