<svg width="100" height="72" viewBox="0 0 100 72" fill="none" xmlns="http://www.w3.org/2000/svg">
<g clip-path="url(#clip0_7_1162)">
<path d="M100 0H0.5V71.15H100V0Z" fill="#E6007D"/>
<path d="M22.01 54.25C13.96 54.25 8.02002 48.15 8.02002 37.65C8.02002 27.15 13.55 20.75 21.61 20.75C27.91 20.75 29.98 22.5 29.98 22.5L28.9 27.25C28.9 27.25 26.29 25.65 22.74 25.65C17.79 25.65 13.88 29.5 13.88 37.65C13.88 45.8 17.7 49.7 22.79 49.7C25.67 49.7 29.13 47.9 29.13 47.9L30.57 52.15C30.57 52.15 27.65 54.25 22.02 54.25H22.01Z" fill="white"/>
<path d="M34.8301 53.75C34.8301 53.75 35.0101 45.3 35.0101 41.75V33.25C35.0101 29.3 34.8301 21.25 34.8301 21.25H40.5901C40.5901 21.25 40.4101 29.3 40.4101 33.25V41.75C40.4101 45.35 40.5901 53.75 40.5901 53.75H34.8301Z" fill="white"/>
<path d="M67.0902 26.35L58.6302 26.15V41.75C58.6302 45.6 58.8102 53.75 58.8102 53.75H53.0502C53.0502 53.75 53.2302 45.6 53.2302 41.75V26.15L44.9502 26.35V21.25H67.3102L67.0902 26.35Z" fill="white"/>
<path d="M79.42 54.25C76.32 54.25 72.99 53.75 70.02 52.75L71.1 48.05C73.35 49 76.45 49.85 78.84 49.85C81.94 49.85 84.42 47.65 84.42 44.05C84.42 39.75 82.04 37.85 78.34 37.85C76.32 37.85 74.25 38.05 72.22 38.4L73.39 21.3H89.36L89 25.95L78.2 25.75L77.57 34.2C78.78 34 80 33.85 81.21 33.85C87.2 33.85 90.25 37.6 90.25 44.15C90.25 51.4 85.25 54.25 79.41 54.25H79.42Z" fill="white"/>
</g>
<defs>
<clipPath id="clip0_7_1162">
<rect width="99.5" height="71.15" fill="white" transform="translate(0.5)"/>
</clipPath>
</defs>
</svg>
