<svg width="100" height="72" viewBox="0 0 100 72" fill="none" xmlns="http://www.w3.org/2000/svg">
<g clip-path="url(#clip0_7_1148)">
<path d="M100 0H0.5V71.15H100V0Z" fill="#E6007D"/>
<path d="M22.6101 54.25C14.5601 54.25 8.62012 48.15 8.62012 37.65C8.62012 27.15 14.1501 20.75 22.2101 20.75C28.5101 20.75 30.5801 22.5 30.5801 22.5L29.5001 27.25C29.5001 27.25 26.8901 25.65 23.3401 25.65C18.3901 25.65 14.4801 29.5 14.4801 37.65C14.4801 45.8 18.3001 49.7 23.3901 49.7C26.2701 49.7 29.7301 47.9 29.7301 47.9L31.1701 52.15C31.1701 52.15 28.2501 54.25 22.6201 54.25H22.6101Z" fill="white"/>
<path d="M35.4402 53.75C35.4402 53.75 35.6202 45.3 35.6202 41.75V33.25C35.6202 29.3 35.4402 21.25 35.4402 21.25H41.2002C41.2002 21.25 41.0202 29.3 41.0202 33.25V41.75C41.0202 45.35 41.2002 53.75 41.2002 53.75H35.4402Z" fill="white"/>
<path d="M67.7001 26.35L59.2401 26.15V41.75C59.2401 45.6 59.4201 53.75 59.4201 53.75H53.6601C53.6601 53.75 53.8401 45.6 53.8401 41.75V26.15L45.5601 26.35V21.25H67.9201L67.7001 26.35Z" fill="white"/>
<path d="M85.7901 53.75L83.0901 45.4H72.7401L69.8601 53.75H63.8801L75.9801 21.25H81.2901L91.9101 53.75H85.7901ZM77.9601 28.55L74.0001 40.9H81.8301L77.9601 28.55Z" fill="white"/>
</g>
<defs>
<clipPath id="clip0_7_1148">
<rect width="99.5" height="71.15" fill="white" transform="translate(0.5)"/>
</clipPath>
</defs>
</svg>
