<svg width="100" height="72" viewBox="0 0 100 72" fill="none" xmlns="http://www.w3.org/2000/svg">
<g clip-path="url(#clip0_7_1224)">
<path d="M99.5 0H0V71.15H99.5V0Z" fill="#E72180"/>
<path d="M24.44 54.25C16.39 54.25 10.45 48.15 10.45 37.65C10.45 27.15 15.98 20.75 24.04 20.75C30.34 20.75 32.41 22.5 32.41 22.5L31.33 27.25C31.33 27.25 28.72 25.65 25.17 25.65C20.22 25.65 16.31 29.5 16.31 37.65C16.31 45.8 20.13 49.7 25.22 49.7C28.1 49.7 31.56 47.9 31.56 47.9L33 52.15C33 52.15 30.08 54.25 24.45 54.25H24.44Z" fill="white"/>
<path d="M37.26 53.75C37.26 53.75 37.44 45.3 37.44 41.75V33.25C37.44 29.3 37.26 21.25 37.26 21.25H43.02C43.02 21.25 42.84 29.3 42.84 33.25V41.75C42.84 45.35 43.02 53.75 43.02 53.75H37.26Z" fill="white"/>
<path d="M69.5299 26.35L61.0699 26.15V41.75C61.0699 45.6 61.2499 53.75 61.2499 53.75H55.4899C55.4899 53.75 55.6699 45.6 55.6699 41.75V26.15L47.3899 26.35V21.25H69.7499L69.5199 26.35H69.5299Z" fill="white"/>
<path d="M91.1301 53.75H73.8101C73.8101 53.75 73.9901 45.6 73.9901 41.75V33.25C73.9901 29.8 73.8101 21.25 73.8101 21.25H79.5701C79.5701 21.25 79.3901 29.8 79.3901 33.25V49.05C81.5001 49.05 91.3601 48.85 91.3601 48.85L91.1301 53.75Z" fill="white"/>
</g>
<defs>
<clipPath id="clip0_7_1224">
<rect width="99.5" height="71.15" fill="white"/>
</clipPath>
</defs>
</svg>
