<svg width="100" height="72" viewBox="0 0 100 72" fill="none" xmlns="http://www.w3.org/2000/svg">
<g clip-path="url(#clip0_7_1141)">
<path d="M99.5 0H0V71.15H99.5V0Z" fill="#E6007D"/>
<path d="M21.6399 54.25C13.5899 54.25 7.6499 48.15 7.6499 37.65C7.6499 27.15 13.1799 20.75 21.2399 20.75C27.5399 20.75 29.6099 22.5 29.6099 22.5L28.5299 27.25C28.5299 27.25 25.9199 25.65 22.3699 25.65C17.4199 25.65 13.5099 29.5 13.5099 37.65C13.5099 45.8 17.3299 49.7 22.4199 49.7C25.2999 49.7 28.7599 47.9 28.7599 47.9L30.1999 52.15C30.1999 52.15 27.2799 54.25 21.6499 54.25H21.6399Z" fill="white"/>
<path d="M34.47 53.75C34.47 53.75 34.65 45.3 34.65 41.75V33.25C34.65 29.3 34.47 21.25 34.47 21.25H40.23C40.23 21.25 40.05 29.3 40.05 33.25V41.75C40.05 45.35 40.23 53.75 40.23 53.75H34.47Z" fill="white"/>
<path d="M66.7298 26.35L58.2698 26.15V41.75C58.2698 45.6 58.4498 53.75 58.4498 53.75H52.6898C52.6898 53.75 52.8698 45.6 52.8698 41.75V26.15L44.5898 26.35V21.25H66.9498L66.7298 26.35Z" fill="white"/>
<path d="M90.7599 26.35L82.2999 26.15V41.75C82.2999 45.6 82.4799 53.75 82.4799 53.75H76.7199C76.7199 53.75 76.8999 45.6 76.8999 41.75V26.15L68.6199 26.35V21.25H90.9799L90.7499 26.35H90.7599Z" fill="white"/>
</g>
<defs>
<clipPath id="clip0_7_1141">
<rect width="99.5" height="71.15" fill="white"/>
</clipPath>
</defs>
</svg>
