<svg width="100" height="72" viewBox="0 0 100 72" fill="none" xmlns="http://www.w3.org/2000/svg">
<g clip-path="url(#clip0_7_1072)">
<path d="M99.5 0H0V71.15H99.5V0Z" fill="#F5C500"/>
<path d="M24.79 54.25C16.74 54.25 10.8 48.15 10.8 37.65C10.8 27.15 16.33 20.75 24.39 20.75C30.69 20.75 32.76 22.5 32.76 22.5L31.68 27.25C31.68 27.25 29.07 25.65 25.52 25.65C20.57 25.65 16.66 29.5 16.66 37.65C16.66 45.8 20.48 49.7 25.57 49.7C28.45 49.7 31.91 47.9 31.91 47.9L33.35 52.15C33.35 52.15 30.43 54.25 24.8 54.25H24.79Z" fill="#1D1D1B"/>
<path d="M49.6301 54.4C42.7501 54.4 35.8201 50.15 35.8201 37.6C35.8201 25.05 42.7501 20.8 49.6301 20.8C56.5101 20.8 63.4401 25.05 63.4401 37.6C63.4401 50.15 56.5101 54.4 49.6301 54.4ZM49.6301 25.6C44.5501 25.6 41.6701 29.85 41.6701 37.6C41.6701 45.35 44.5501 49.6 49.6301 49.6C54.7101 49.6 57.5901 45.35 57.5901 37.6C57.5901 29.85 54.7101 25.6 49.6301 25.6Z" fill="#1D1D1B"/>
<path d="M87.02 53.75H67.18C67.09 53.15 67.05 52.5 67.05 51.9C67.05 38.25 80.86 38.5 80.86 30.5C80.86 26.95 78.92 25.6 75.91 25.6C73.79 25.6 71.28 26.95 69.66 28.4L67.73 24.25C69.94 21.95 73.8 20.75 76.73 20.75C82.18 20.75 86.45 23.1 86.45 29.8C86.45 41.4 73.27 43.45 72.95 49.15L87.39 48.85L87.03 53.75H87.02Z" fill="#1D1D1B"/>
</g>
<defs>
<clipPath id="clip0_7_1072">
<rect width="99.5" height="71.15" fill="white"/>
</clipPath>
</defs>
</svg>
