<svg width="100" height="72" viewBox="0 0 100 72" fill="none" xmlns="http://www.w3.org/2000/svg">
<g clip-path="url(#clip0_7_1066)">
<path d="M100 0H0.5V71.15H100V0Z" fill="#BD0E0D"/>
<path d="M25.1299 54.25C17.0799 54.25 11.1399 48.15 11.1399 37.65C11.1399 27.15 16.6699 20.75 24.7299 20.75C31.0299 20.75 33.0999 22.5 33.0999 22.5L32.0199 27.25C32.0199 27.25 29.4099 25.65 25.8599 25.65C20.9099 25.65 16.9999 29.5 16.9999 37.65C16.9999 45.8 20.8199 49.7 25.9099 49.7C28.7899 49.7 32.2499 47.9 32.2499 47.9L33.6899 52.15C33.6899 52.15 30.7699 54.25 25.1399 54.25H25.1299Z" fill="white"/>
<path d="M49.9699 54.4C43.0899 54.4 36.1599 50.15 36.1599 37.6C36.1599 25.05 43.0899 20.8 49.9699 20.8C56.8499 20.8 63.7799 25.05 63.7799 37.6C63.7799 50.15 56.8499 54.4 49.9699 54.4ZM49.9699 25.6C44.8899 25.6 42.0099 29.85 42.0099 37.6C42.0099 45.35 44.8899 49.6 49.9699 49.6C55.0499 49.6 57.9299 45.35 57.9299 37.6C57.9299 29.85 55.0499 25.6 49.9699 25.6Z" fill="white"/>
<path d="M76.0299 54.25C73.3699 54.25 69.2799 53.5 66.9399 52.1L67.9299 47.6C70.0899 48.8 73.0999 49.75 75.4899 49.75C78.9999 49.75 81.2899 48.05 81.2899 43.9C81.2899 40.5 79.0799 38.9 76.2499 38.9H72.6099L72.7899 34.35H76.2499C78.5399 34.35 79.8899 32.55 79.8899 30.05C79.8899 26.65 77.9999 25.35 75.1699 25.35C73.2799 25.35 70.8499 26.1 69.1399 27.15L68.0599 22.85C70.2199 21.65 73.2299 20.75 75.6199 20.75C80.6999 20.75 85.7399 22.75 85.7399 29.4C85.7399 32.15 84.7499 34.55 82.4999 35.85C85.6899 37.1 87.1299 40.3 87.1299 43.9C87.1299 51.35 82.0499 54.25 76.0199 54.25H76.0299Z" fill="white"/>
</g>
<defs>
<clipPath id="clip0_7_1066">
<rect width="99.5" height="71.15" fill="white" transform="translate(0.5)"/>
</clipPath>
</defs>
</svg>
