<svg width="100" height="72" viewBox="0 0 100 72" fill="none" xmlns="http://www.w3.org/2000/svg">
<g clip-path="url(#clip0_7_1219)">
<path d="M99.5 0H0V71.15H99.5V0Z" fill="#163A65"/>
<path d="M48.56 53.75H31.24C31.24 53.75 31.42 45.6 31.42 41.75V33.25C31.42 29.8 31.24 21.25 31.24 21.25H37C37 21.25 36.82 29.8 36.82 33.25V49.05C38.94 49.05 48.79 48.85 48.79 48.85L48.56 53.75Z" fill="white"/>
<path d="M59.9001 54.25C57.2501 54.25 53.1501 53.5 50.8101 52.1L51.8001 47.6C53.9601 48.8 56.9701 49.75 59.3601 49.75C62.8701 49.75 65.1601 48.05 65.1601 43.9C65.1601 40.5 62.9601 38.9 60.1201 38.9H56.4701L56.6501 34.35H60.1101C62.4001 34.35 63.7501 32.55 63.7501 30.05C63.7501 26.65 61.8601 25.35 59.0301 25.35C57.1401 25.35 54.7101 26.1 53.0001 27.15L51.9201 22.85C54.0801 21.65 57.0901 20.75 59.4801 20.75C64.5601 20.75 69.6001 22.75 69.6001 29.4C69.6001 32.15 68.6101 34.55 66.3601 35.85C69.5601 37.1 70.9901 40.3 70.9901 43.9C70.9901 51.35 65.9101 54.25 59.8801 54.25H59.9001Z" fill="white"/>
</g>
<defs>
<clipPath id="clip0_7_1219">
<rect width="99.5" height="71.15" fill="white"/>
</clipPath>
</defs>
</svg>
