<svg width="100" height="72" viewBox="0 0 100 72" fill="none" xmlns="http://www.w3.org/2000/svg">
<g clip-path="url(#clip0_7_1051)">
<path d="M100 0H0.5V71.15H100V0Z" fill="#004F9F"/>
<path d="M46.78 53.75H29.46C29.46 53.75 29.64 45.6 29.64 41.75V33.25C29.64 29.8 29.46 21.25 29.46 21.25H35.22C35.22 21.25 35.04 29.8 35.04 33.25V49.05C37.16 49.05 47.01 48.85 47.01 48.85L46.78 53.75Z" fill="white"/>
<path d="M70.45 46.5H67.16L67.25 53.75H61.67L61.76 46.5H49.21L49.03 42.15L61.13 21.25H67.16V42.1H70.62L70.44 46.5H70.45ZM61.77 28.05L53.45 42.1H61.77V28.05Z" fill="white"/>
</g>
<defs>
<clipPath id="clip0_7_1051">
<rect width="99.5" height="71.15" fill="white" transform="translate(0.5)"/>
</clipPath>
</defs>
</svg>
