<svg width="100" height="72" viewBox="0 0 100 72" fill="none" xmlns="http://www.w3.org/2000/svg">
<g clip-path="url(#clip0_7_1214)">
<path d="M99.5 0H0V71.15H99.5V0Z" fill="#1B7FC3"/>
<path d="M48.04 53.75H30.72C30.72 53.75 30.9 45.6 30.9 41.75V33.25C30.9 29.8 30.72 21.25 30.72 21.25H36.48C36.48 21.25 36.3 29.8 36.3 33.25V49.05C38.42 49.05 48.27 48.85 48.27 48.85L48.04 53.75Z" fill="white"/>
<path d="M61.13 54.25C56.76 54.25 50.74 52.35 50.74 44.75C50.74 38.5 55.28 36.7 55.28 36.7C55.28 36.7 51.86 35 51.86 30.2C51.86 23.3 55.59 20.7 61.13 20.7C66.67 20.7 70.4 23.3 70.4 30.2C70.4 35 66.98 36.7 66.98 36.7C66.98 36.7 71.52 38.5 71.52 44.75C71.52 52.35 65.49 54.25 61.13 54.25ZM61.13 39C58.21 39 56.5 40.1499 56.5 44.5999C56.5 48.4999 58.25 50.25 61.13 50.25C64.01 50.25 65.76 48.4999 65.76 44.5999C65.76 40.1499 64.05 39 61.13 39ZM61.13 24.75C59.01 24.75 57.44 26.1 57.44 30.35C57.44 33.9 59.02 35.2 61.13 35.2C63.24 35.2 64.82 33.9 64.82 30.35C64.82 26.1 63.24 24.75 61.13 24.75Z" fill="white"/>
</g>
<defs>
<clipPath id="clip0_7_1214">
<rect width="99.5" height="71.15" fill="white"/>
</clipPath>
</defs>
</svg>
