<svg width="100" height="72" viewBox="0 0 100 72" fill="none" xmlns="http://www.w3.org/2000/svg">
<g clip-path="url(#clip0_7_1030)">
<path d="M99.5 0H0V71.15H99.5V0Z" fill="#00ACA5"/>
<path d="M33.9001 53.75H16.5801C16.5801 53.75 16.7601 45.6 16.7601 41.75V33.25C16.7601 29.8 16.5801 21.25 16.5801 21.25H22.3401C22.3401 21.25 22.1601 29.8 22.1601 33.25V49.05C24.2801 49.05 34.1301 48.85 34.1301 48.85L33.9001 53.75Z" fill="white"/>
<path d="M43.7601 54.25C40.7001 54.25 37.4601 53.3 37.4601 53.3L38.0901 48.9C38.0901 48.9 40.7001 49.8 43.2201 49.8C51.1401 49.8 50.9601 42.65 50.9601 39.3C50.9601 39.3 48.2201 41.75 45.0201 41.75C40.2501 41.75 36.6001 39.35 36.6001 31.5C36.6001 22.65 43.0801 20.75 46.2701 20.75C51.3101 20.75 56.8401 22.95 56.8401 36.3C56.8401 45.45 55.0001 54.25 43.7501 54.25H43.7601ZM46.1001 24.65C44.3001 24.65 42.4601 26 42.4601 31.45C42.4601 35.4 43.9401 37.9 46.0601 37.9C48.8901 37.9 50.7901 35.8 50.7901 35.8C50.7901 30.55 50.2501 24.65 46.1101 24.65H46.1001Z" fill="white"/>
<path d="M71.7001 54.25C64.6401 54.25 60.9001 49.4 60.9001 37.55C60.9001 26.5 64.5401 20.75 71.7001 20.75C78.8601 20.75 82.5001 26.5 82.5001 37.55C82.5001 49.4 78.7701 54.25 71.7001 54.25ZM71.7001 25C68.7301 25 66.7501 29 66.7501 37.55C66.7501 46.1 68.6401 50 71.7001 50C74.7601 50 76.6501 46.15 76.6501 37.55C76.6501 28.95 74.6701 25 71.7001 25Z" fill="white"/>
</g>
<defs>
<clipPath id="clip0_7_1030">
<rect width="99.5" height="71.15" fill="white"/>
</clipPath>
</defs>
</svg>
