<svg width="100" height="72" viewBox="0 0 100 72" fill="none" xmlns="http://www.w3.org/2000/svg">
<g clip-path="url(#clip0_7_1024)">
<path d="M100 0H0.5V71.15H100V0Z" fill="#00ACA5"/>
<path d="M38.52 53.75H21.2C21.2 53.75 21.3799 45.6 21.3799 41.75V33.25C21.3799 29.8 21.2 21.25 21.2 21.25H26.9599C26.9599 21.25 26.78 29.8 26.78 33.25V49.05C28.9 49.05 38.75 48.85 38.75 48.85L38.52 53.75Z" fill="white"/>
<path d="M48.38 54.25C45.32 54.25 42.08 53.3 42.08 53.3L42.71 48.9C42.71 48.9 45.32 49.8 47.84 49.8C55.76 49.8 55.58 42.65 55.58 39.3C55.58 39.3 52.83 41.75 49.64 41.75C44.87 41.75 41.22 39.35 41.22 31.5C41.22 22.65 47.7 20.75 50.89 20.75C55.93 20.75 61.47 22.95 61.47 36.3C61.47 45.45 59.63 54.25 48.38 54.25ZM50.72 24.65C48.92 24.65 47.08 26 47.08 31.45C47.08 35.4 48.56 37.9 50.68 37.9C53.51 37.9 55.4 35.8 55.4 35.8C55.4 30.55 54.86 24.65 50.72 24.65Z" fill="white"/>
<path d="M72.1799 27.15L65.8399 29.05L64.8499 23.8L77.5399 20.7V53.75H71.8299C71.8299 53.75 72.1899 45.3 72.1899 41.75V27.15H72.1799Z" fill="white"/>
</g>
<defs>
<clipPath id="clip0_7_1024">
<rect width="99.5" height="71.15" fill="white" transform="translate(0.5)"/>
</clipPath>
</defs>
</svg>
