<svg width="100" height="72" viewBox="0 0 100 72" fill="none" xmlns="http://www.w3.org/2000/svg">
<g clip-path="url(#clip0_7_1011)">
<path d="M100 0H0.5V71.15H100V0Z" fill="#00ACA5"/>
<path d="M35.4799 53.75H18.1599C18.1599 53.75 18.3399 45.6 18.3399 41.75V33.25C18.3399 29.8 18.1599 21.25 18.1599 21.25H23.9199C23.9199 21.25 23.7399 29.8 23.7399 33.25V49.05C25.8599 49.05 35.7099 48.85 35.7099 48.85L35.4799 53.75Z" fill="white"/>
<path d="M45.3399 54.25C42.2799 54.25 39.0399 53.3 39.0399 53.3L39.6699 48.9C39.6699 48.9 42.2799 49.8 44.7999 49.8C52.7199 49.8 52.5399 42.65 52.5399 39.3C52.5399 39.3 49.7999 41.75 46.5999 41.75C41.8299 41.75 38.1799 39.35 38.1799 31.5C38.1799 22.65 44.6599 20.75 47.8499 20.75C52.8899 20.75 58.4199 22.95 58.4199 36.3C58.4199 45.45 56.5799 54.25 45.3299 54.25H45.3399ZM47.6799 24.65C45.8799 24.65 44.0399 26 44.0399 31.45C44.0399 35.4 45.5199 37.9 47.6399 37.9C50.4699 37.9 52.3699 35.8 52.3699 35.8C52.3699 30.55 51.8299 24.65 47.6899 24.65H47.6799Z" fill="white"/>
<path d="M82.46 53.75H62.62C62.53 53.15 62.49 52.5 62.49 51.9C62.49 38.25 76.3 38.5 76.3 30.5C76.3 26.95 74.36 25.6 71.35 25.6C69.23 25.6 66.72 26.95 65.1 28.4L63.17 24.25C65.38 21.95 69.24 20.75 72.17 20.75C77.62 20.75 81.89 23.1 81.89 29.8C81.89 41.4 68.71 43.45 68.39 49.15L82.83 48.85L82.47 53.75H82.46Z" fill="white"/>
</g>
<defs>
<clipPath id="clip0_7_1011">
<rect width="99.5" height="71.15" fill="white" transform="translate(0.5)"/>
</clipPath>
</defs>
</svg>
