<svg width="100" height="72" viewBox="0 0 100 72" fill="none" xmlns="http://www.w3.org/2000/svg">
<g clip-path="url(#clip0_7_999)">
<path d="M99.5 0H0V71.15H99.5V0Z" fill="#00ACA5"/>
<path d="M34.58 53.75H17.26C17.26 53.75 17.44 45.6 17.44 41.75V33.25C17.44 29.8 17.26 21.25 17.26 21.25H23.02C23.02 21.25 22.84 29.8 22.84 33.25V49.05C24.96 49.05 34.81 48.85 34.81 48.85L34.58 53.75Z" fill="white"/>
<path d="M44.43 54.25C41.37 54.25 38.13 53.3 38.13 53.3L38.76 48.9C38.76 48.9 41.37 49.8 43.89 49.8C51.81 49.8 51.63 42.65 51.63 39.3C51.63 39.3 48.89 41.75 45.69 41.75C40.92 41.75 37.27 39.35 37.27 31.5C37.27 22.65 43.75 20.75 46.94 20.75C51.98 20.75 57.51 22.95 57.51 36.3C57.51 45.45 55.67 54.25 44.42 54.25H44.43ZM46.77 24.65C44.97 24.65 43.13 26 43.13 31.45C43.13 35.4 44.61 37.9 46.73 37.9C49.56 37.9 51.46 35.8 51.46 35.8C51.46 30.55 50.92 24.65 46.78 24.65H46.77Z" fill="white"/>
<path d="M68.7301 54.25C65.6701 54.25 62.4301 53.3 62.4301 53.3L63.0601 48.9C63.0601 48.9 65.6701 49.8 68.1901 49.8C76.1101 49.8 75.9301 42.65 75.9301 39.3C75.9301 39.3 73.1801 41.75 69.9901 41.75C65.2201 41.75 61.5801 39.35 61.5801 31.5C61.5801 22.65 68.0601 20.75 71.2501 20.75C76.2901 20.75 81.8301 22.95 81.8301 36.3C81.8301 45.45 79.9901 54.25 68.7401 54.25H68.7301ZM71.0701 24.65C69.2701 24.65 67.4301 26 67.4301 31.45C67.4301 35.4 68.9101 37.9 71.0301 37.9C73.8601 37.9 75.7501 35.8 75.7501 35.8C75.7501 30.55 75.2101 24.65 71.0701 24.65Z" fill="white"/>
</g>
<defs>
<clipPath id="clip0_7_999">
<rect width="99.5" height="71.15" fill="white"/>
</clipPath>
</defs>
</svg>
