<svg width="89" height="89" viewBox="0 0 89 89" fill="none" xmlns="http://www.w3.org/2000/svg">
<g clip-path="url(#clip0_2_2)">
<path d="M88.87 41.58C90.57 68.43 68.44 90.57 41.58 88.87C19.44 87.47 1.48001 69.49 0.0900124 47.36C-1.58999 20.51 20.53 -1.60001 47.36 0.0899899C69.5 1.48999 87.46 19.45 88.87 41.58Z" fill="#F9B122"/>
<path d="M36.96 68.18C37.01 65.56 37.09 63.05 37.2 60.65C37.25 58.61 37.3 56.53 37.36 54.41C37.41 52.29 37.44 50.61 37.44 49.35V30.52L28.97 32.01L28.19 18.67L53.85 17.1V68.18H36.98H36.96Z" fill="#1D1D1B"/>
</g>
<defs>
<clipPath id="clip0_2_2">
<rect width="88.96" height="88.96" fill="white"/>
</clipPath>
</defs>
</svg>
