<svg width="121" height="72" viewBox="0 0 121 72" fill="none" xmlns="http://www.w3.org/2000/svg">
<g clip-path="url(#clip0_7_1208)">
<path d="M120.4 0H0V71.15H120.4V0Z" fill="#FECA16"/>
<path d="M36.1301 53.75L35.5501 29.65L28.2601 50.55H24.5701L17.2801 29.8L16.5601 53.75H11.8401L12.2901 41.7L13.2301 21.25H19.7101L27.0001 41.1L33.9701 21.25H40.6301L41.4801 41.7L41.8801 53.75H36.1201H36.1301Z" fill="#020304"/>
<path d="M77.16 53.75H72.03L66 30.45L59.52 53.75H53.9L45.49 21.25H51.92L57.46 44.25L63.71 21.25H69.6L75.36 44.2L81.57 21.25H86.83L77.16 53.75Z" fill="#020304"/>
<path d="M106.87 53.75L98.7202 40.55H96.0202L96.1502 53.75H90.4402C90.4402 53.75 90.6202 45.9 90.6202 41.75V21.25H99.6202C104.97 21.25 110.1 23 110.1 30.85C110.1 37.95 104.07 39.8 104.07 39.8L113.83 53.75H106.86H106.87ZM99.5802 26H96.0302V35.75H99.5802C102.91 35.75 104.62 34.5 104.62 31.1C104.62 27.25 102.59 26 99.5802 26Z" fill="#020304"/>
</g>
<defs>
<clipPath id="clip0_7_1208">
<rect width="120.4" height="71.15" fill="white"/>
</clipPath>
</defs>
</svg>
