<svg width="100" height="72" viewBox="0 0 100 72" fill="none" xmlns="http://www.w3.org/2000/svg">
<g clip-path="url(#clip0_7_1203)">
<path d="M99.5 0H0V71.15H99.5V0Z" fill="#3E2459"/>
<path d="M47.8101 53.75L34.7201 31.15V41.75C34.7201 45.7 34.9001 53.75 34.9001 53.75H29.3701C29.3701 53.75 29.5501 45.7 29.5501 41.75V21.25H35.7101L48.7601 43.95V33.25C48.7601 31.3 48.6301 21.25 48.6301 21.25H54.1201C54.1201 21.25 53.9401 29.65 53.9401 33.25V53.75H47.8201H47.8101Z" fill="white"/>
<path d="M66.1701 27.15L59.8301 29.0499L58.8401 23.7999L71.5301 20.7V53.75H65.8201C65.8201 53.75 66.1801 45.3 66.1801 41.75V27.15H66.1701Z" fill="white"/>
</g>
<defs>
<clipPath id="clip0_7_1203">
<rect width="99.5" height="71.15" fill="white"/>
</clipPath>
</defs>
</svg>
