<svg width="100" height="72" viewBox="0 0 100 72" fill="none" xmlns="http://www.w3.org/2000/svg">
<g clip-path="url(#clip0_7_1197)">
<path d="M99.5 0H0V71.15H99.5V0Z" fill="#E72180"/>
<path d="M31.3199 53.75L18.2299 31.15V41.75C18.2299 45.7 18.4099 53.75 18.4099 53.75H12.8799C12.8799 53.75 13.0599 45.7 13.0599 41.75V21.25H19.2199L32.2699 43.95V33.25C32.2699 31.3 32.1399 21.25 32.1399 21.25H37.6299C37.6299 21.25 37.4499 29.65 37.4499 33.25V53.75H31.3299H31.3199Z" fill="white"/>
<path d="M57.69 53.75H51.8L41.23 21.25H47.35L55.09 46.85L63.73 21.25H69.58L57.7 53.75H57.69Z" fill="white"/>
<path d="M90.4999 53.75H73.1799C73.1799 53.75 73.3599 45.6 73.3599 41.75V33.25C73.3599 29.8 73.1799 21.25 73.1799 21.25H78.9399C78.9399 21.25 78.7599 29.8 78.7599 33.25V49.05C80.8699 49.05 90.7299 48.85 90.7299 48.85L90.4999 53.75Z" fill="white"/>
</g>
<defs>
<clipPath id="clip0_7_1197">
<rect width="99.5" height="71.15" fill="white"/>
</clipPath>
</defs>
</svg>
