<svg width="100" height="72" viewBox="0 0 100 72" fill="none" xmlns="http://www.w3.org/2000/svg">
<g clip-path="url(#clip0_7_939)">
<path d="M99.5 0H0V71.15H99.5V0Z" fill="#F59C00"/>
<path d="M48.35 53.75H25.9L25.67 48.1L41.01 26.35L26.12 26.55V21.25H48.03V26.9L32.55 48.7L48.57 48.5L48.35 53.75Z" fill="white"/>
<path d="M72.1501 53.75H52.3101C52.2201 53.15 52.1801 52.5 52.1801 51.9C52.1801 38.25 65.9901 38.5 65.9901 30.5C65.9901 26.95 64.0601 25.6 61.0401 25.6C58.9201 25.6 56.4101 26.95 54.7901 28.4L52.8501 24.25C55.0601 21.95 58.9301 20.75 61.8501 20.75C67.2901 20.75 71.5701 23.1 71.5701 29.8C71.5701 41.4 58.3901 43.45 58.0701 49.15L72.5201 48.85L72.1601 53.75H72.1501Z" fill="white"/>
</g>
<defs>
<clipPath id="clip0_7_939">
<rect width="99.5" height="71.15" fill="white"/>
</clipPath>
</defs>
</svg>
