<svg width="100" height="72" viewBox="0 0 100 72" fill="none" xmlns="http://www.w3.org/2000/svg">
<g clip-path="url(#clip0_7_924)">
<path d="M99.5 0H0V71.15H99.5V0Z" fill="#FFCC00"/>
<path d="M48.19 53.75H25.74L25.51 48.1L40.85 26.35L25.96 26.55V21.25H47.87V26.9L32.39 48.7L48.41 48.5L48.19 53.75Z" fill="#1D1D1B"/>
<path d="M60.6501 54.25C58.0001 54.25 53.9001 53.5 51.5601 52.1L52.5501 47.6C54.7101 48.8 57.7201 49.75 60.1101 49.75C63.6201 49.75 65.9101 48.05 65.9101 43.9C65.9101 40.5 63.7101 38.9 60.8701 38.9H57.2201L57.4001 34.35H60.8601C63.1501 34.35 64.5001 32.55 64.5001 30.05C64.5001 26.65 62.6101 25.35 59.7801 25.35C57.8901 25.35 55.4601 26.1 53.7501 27.15L52.6701 22.85C54.8301 21.65 57.8401 20.75 60.2301 20.75C65.3101 20.75 70.3501 22.75 70.3501 29.4C70.3501 32.15 69.3601 34.55 67.1101 35.85C70.3101 37.1 71.7401 40.3 71.7401 43.9C71.7401 51.35 66.6601 54.25 60.6301 54.25H60.6501Z" fill="#1D1D1B"/>
</g>
<defs>
<clipPath id="clip0_7_924">
<rect width="99.5" height="71.15" fill="white"/>
</clipPath>
</defs>
</svg>
