<svg width="100" height="72" viewBox="0 0 100 72" fill="none" xmlns="http://www.w3.org/2000/svg">
<g clip-path="url(#clip0_7_929)">
<path d="M99.5 0H0V71.15H99.5V0Z" fill="#FECA0E"/>
<path d="M47.94 53.75H25.49L25.26 48.1L40.6 26.35L25.71 26.55V21.25H47.62V26.9L32.14 48.7L48.16 48.5L47.94 53.75Z" fill="#1D1D1B"/>
<path d="M62.25 54.25C57.21 54.25 51.77 52.65 51.77 38.7C51.77 29.55 55.6 20.75 64.77 20.75C67.83 20.75 69.76 21.4 70.3 21.55L69.67 25.95C69.67 25.95 67.83 25.2 65.31 25.2C59.82 25.2 58.38 30.6 58.2 36.3C59.64 35.2 60.54 33.85 63.51 33.85C67.87 33.85 72.01 36.3 72.01 43.8C72.01 52.65 65.44 54.25 62.25 54.25ZM62.48 37.7C60 37.7 58.2 39.9 58.2 39.9C58.2 46.1 59.41 50.35 62.43 50.35C64.45 50.35 66.16 48.9 66.16 43.85C66.16 39.45 65.04 37.7 62.47 37.7H62.48Z" fill="#1D1D1B"/>
</g>
<defs>
<clipPath id="clip0_7_929">
<rect width="99.5" height="71.15" fill="white"/>
</clipPath>
</defs>
</svg>
